<svg xmlns="http://www.w3.org/2000/svg" width="1280" height="1280" viewBox="0 0 1280 1280" version="1.1"><path d="M 238.618 19.809 C 238.343 20.253, 244.504 20.657, 252.309 20.705 C 260.641 20.757, 265.674 20.452, 264.500 19.967 C 261.898 18.892, 239.270 18.753, 238.618 19.809 M 205.188 36.309 C 202.884 38.656, 201 40.915, 201 41.330 C 201 41.744, 200.213 42.930, 199.250 43.964 C 197.605 45.731, 192.636 55.079, 190.993 59.500 C 190.584 60.600, 189.743 62.759, 189.125 64.297 C 187.731 67.764, 187.659 71.329, 189 70.500 C 189.550 70.160, 190 68.821, 190 67.524 C 190 65.352, 191.607 61.016, 195.752 52.002 C 198.093 46.911, 202.982 40.129, 206.997 36.404 C 208.920 34.620, 210.242 32.908, 209.934 32.601 C 209.627 32.293, 207.491 33.962, 205.188 36.309 M 349 52.031 C 349 52.564, 349.693 53, 350.540 53 C 351.388 53, 353.407 53.981, 355.028 55.179 C 356.649 56.377, 358.225 57.108, 358.530 56.803 C 358.836 56.498, 357.604 55.379, 355.793 54.317 C 351.232 51.642, 349 50.891, 349 52.031 M 361.015 57.844 C 361.007 58.583, 361.900 59.423, 363 59.710 C 364.100 59.998, 365 60.559, 365 60.956 C 365 61.909, 370.112 64.222, 370.768 63.565 C 371.048 63.285, 370.202 62.594, 368.889 62.030 C 365.713 60.667, 362.670 58.732, 361.765 57.500 C 361.320 56.894, 361.025 57.029, 361.015 57.844 M 241 60 C 241 60.550, 242.548 61, 244.441 61 C 246.334 61, 248.160 60.550, 248.500 60 C 248.873 59.396, 247.510 59, 245.059 59 C 242.827 59, 241 59.450, 241 60 M 226.814 67.219 C 224.280 71.185, 222 77.917, 222 81.431 C 222 87.392, 230.898 111, 233.145 111 C 233.597 111, 233.168 109.537, 232.192 107.750 C 230.276 104.238, 225.994 93.691, 224.146 87.929 C 222.339 82.298, 222.819 77.963, 225.962 71.522 C 228.960 65.378, 229.396 63.177, 226.814 67.219 M 373 65.902 C 373 66.506, 373.445 67, 373.989 67 C 375.054 67, 376.293 67.947, 384.793 75.255 C 387.834 77.871, 390.587 79.746, 390.910 79.423 C 391.233 79.101, 390.784 78.311, 389.913 77.668 C 389.041 77.026, 386.185 74.700, 383.566 72.500 C 377.242 67.189, 373 64.540, 373 65.902 M 402 88.850 C 402 90.084, 407.937 92.148, 410.225 91.709 C 412.248 91.321, 412.202 91.257, 409.809 91.136 C 408.329 91.061, 406.873 90.604, 406.575 90.121 C 405.899 89.028, 402 87.944, 402 88.850 M 188 93.575 C 188 95.903, 190.152 103.288, 191.169 104.450 C 191.626 104.972, 192 106.216, 192 107.214 C 192 108.211, 192.394 109.809, 192.875 110.764 C 193.356 111.719, 194.764 114.525, 196.003 117 C 201.440 127.860, 204.309 133.073, 205.124 133.577 C 206.596 134.486, 206.138 133.344, 202.611 127.304 C 196.255 116.418, 190 100.585, 190 95.381 C 190 94.136, 189.550 92.840, 189 92.500 C 188.450 92.160, 188 92.644, 188 93.575 M 429.500 93 C 430.600 93.473, 435.325 93.828, 440 93.789 C 448.164 93.721, 448.283 93.688, 443 92.958 C 435.156 91.874, 426.938 91.899, 429.500 93 M 332 93.395 C 332 93.613, 334.250 94.967, 337 96.405 C 339.750 97.843, 342 98.565, 342 98.010 C 342 97.454, 341.508 97, 340.908 97 C 340.307 97, 338.671 96.100, 337.273 95 C 335.022 93.229, 332 92.310, 332 93.395 M 345.500 101.531 C 347.150 102.883, 348.857 103.992, 349.293 103.995 C 350.412 104.002, 360.476 111.534, 364.431 115.326 C 371.549 122.148, 379 127.684, 379 126.150 C 379 125.607, 377.413 124.182, 375.473 122.984 C 373.534 121.785, 371.396 120.257, 370.723 119.588 C 369.276 118.149, 360.164 110.212, 357.239 107.843 C 354.140 105.331, 344.060 98.995, 343.231 99.036 C 342.829 99.056, 343.850 100.179, 345.500 101.531 M 234 112.740 C 234 114.985, 247.756 134, 249.380 134 C 249.913 134, 249.426 132.988, 248.299 131.750 C 247.172 130.512, 243.494 125.491, 240.125 120.591 C 236.756 115.691, 234 112.158, 234 112.740 M 543 117.904 C 543 118.295, 544.913 119.444, 547.250 120.458 C 549.587 121.472, 552.694 123.133, 554.154 124.150 C 557.033 126.156, 559.055 126.655, 557.335 124.935 C 555.732 123.332, 543 117.087, 543 117.904 M 428 134.533 C 435.438 136.105, 443.884 136.448, 442.450 135.120 C 441.928 134.636, 437 133.997, 431.500 133.700 L 421.500 133.159 428 134.533 M 250.016 135.392 C 250.007 135.883, 251.953 138.583, 254.340 141.392 C 268.549 158.115, 294.778 196.087, 302.328 210.865 C 304.755 215.614, 308.867 225.125, 311.467 232 C 317.838 248.849, 317.524 248.048, 319.300 252 C 320.164 253.925, 320.901 254.739, 320.936 253.809 C 320.971 252.879, 320.550 251.840, 320 251.500 C 319.450 251.160, 319 249.810, 319 248.500 C 319 247.190, 318.550 245.840, 318 245.500 C 317.450 245.160, 317 243.810, 317 242.500 C 317 241.190, 316.600 239.871, 316.111 239.568 C 315.622 239.266, 314.918 237.807, 314.546 236.327 C 314.174 234.846, 312.999 231.832, 311.935 229.630 C 310.871 227.427, 310 225.199, 310 224.679 C 310 223.024, 297.665 199, 296.815 199 C 296.367 199, 296 198.543, 296 197.985 C 296 196.781, 288.835 185.649, 287.750 185.167 C 287.337 184.983, 287 184.233, 287 183.500 C 287 182.767, 286.663 182.017, 286.250 181.833 C 285.837 181.650, 284.151 179.475, 282.503 177 C 280.854 174.525, 279.257 172.275, 278.954 172 C 278.651 171.725, 275.809 167.791, 272.639 163.259 C 269.468 158.726, 266.340 154.451, 265.687 153.759 C 265.034 153.066, 263.158 150.700, 261.517 148.500 C 255.647 140.629, 250.037 134.235, 250.016 135.392 M 583.009 140.682 C 583.017 141.457, 596.289 150.151, 598.472 150.811 C 599.037 150.982, 598.150 149.972, 596.500 148.566 C 594.850 147.160, 592.938 146.008, 592.250 146.005 C 591.563 146.002, 591 145.550, 591 145 C 591 144.450, 590.507 144, 589.904 144 C 589.302 144, 587.502 143.069, 585.904 141.932 C 584.307 140.794, 583.004 140.232, 583.009 140.682 M 211.124 142.707 C 211.956 143.693, 215.290 148.100, 218.534 152.500 C 221.777 156.900, 225.016 161.101, 225.731 161.837 C 226.445 162.572, 228.211 164.721, 229.655 166.614 C 231.098 168.506, 232.497 169.837, 232.762 169.571 C 233.028 169.305, 231.053 166.444, 228.373 163.214 C 225.693 159.983, 221.025 153.923, 218 149.747 C 214.975 145.571, 211.850 141.875, 211.056 141.534 C 209.854 141.018, 209.866 141.215, 211.124 142.707 M 500 148.500 C 500.685 149.325, 502.225 150, 503.422 150 C 504.620 150, 506.196 150.563, 506.925 151.250 C 507.994 152.259, 508.163 152.211, 507.798 151 C 507.549 150.175, 506.143 149.358, 504.673 149.184 C 503.203 149.010, 502 148.447, 502 147.934 C 502 147.420, 501.270 147, 500.378 147 C 499.049 147, 498.980 147.271, 500 148.500 M 517 155.623 C 518.925 156.490, 522.188 158.032, 524.250 159.049 C 526.313 160.067, 528 160.493, 528 159.996 C 528 159.500, 526.313 158.360, 524.250 157.463 C 522.188 156.566, 519.719 155.420, 518.764 154.916 C 517.809 154.412, 516.234 154.010, 515.264 154.023 C 514.283 154.035, 515.054 154.746, 517 155.623 M 615 162.094 C 615 162.592, 615.579 163, 616.288 163 C 616.996 163, 619.134 164.332, 621.038 165.959 C 624.602 169.006, 626 169.625, 626 168.157 C 626 167.694, 624.425 166.467, 622.500 165.430 C 620.575 164.393, 619 163.250, 619 162.889 C 619 162.528, 618.100 161.998, 617 161.710 C 615.900 161.423, 615 161.595, 615 162.094 M 540 166.430 C 540 166.666, 542.138 167.903, 544.750 169.179 C 547.362 170.454, 549.725 171.724, 550 171.999 C 551.527 173.529, 555 174.903, 555 173.977 C 555 173.405, 554.212 172.643, 553.250 172.284 C 552.288 171.924, 549.425 170.364, 546.889 168.815 C 542.687 166.249, 540 165.319, 540 166.430 M 628 169.940 C 628 170.838, 630.227 172.850, 633.004 174.461 C 633.989 175.032, 636.429 176.800, 638.425 178.389 C 640.421 179.979, 642.268 181.066, 642.529 180.805 C 642.789 180.544, 639.627 177.809, 635.501 174.728 C 631.376 171.646, 628 169.491, 628 169.940 M 241.232 182 C 241.919 183.100, 242.823 184, 243.241 184 C 243.658 184, 244 184.567, 244 185.260 C 244 185.953, 245.020 187.641, 246.266 189.010 C 247.513 190.380, 250.310 193.975, 252.483 197 C 254.656 200.025, 256.719 202.725, 257.067 203 C 257.415 203.275, 257.882 203.950, 258.105 204.500 C 258.327 205.050, 261.443 210, 265.028 215.500 C 268.613 221, 272.083 226.625, 272.739 228 C 275.404 233.583, 278.655 241.732, 279.720 245.500 C 282.665 255.916, 283.882 259.320, 283.938 257.307 C 284.028 254.122, 277.685 235.300, 274.187 228.370 C 271.012 222.081, 253.349 195.226, 249.608 191 C 248.391 189.625, 246.120 186.588, 244.561 184.250 C 241.791 180.094, 238.765 178.049, 241.232 182 M 572.083 184.338 C 575.631 187.215, 582 190.822, 582 189.954 C 582 189.327, 581.100 188.577, 580 188.290 C 578.900 188.002, 578 187.441, 578 187.044 C 578 186.646, 576.854 185.799, 575.453 185.161 C 573.037 184.060, 571.182 183.607, 572.083 184.338 M 665 198.110 C 669.492 201.998, 672 203.404, 672 202.035 C 672 201.466, 671.526 201, 670.946 201 C 670.366 201, 668.453 199.652, 666.696 198.005 C 664.938 196.357, 663.050 195.025, 662.500 195.045 C 661.950 195.065, 663.075 196.444, 665 198.110 M 421.500 202.554 L 416.500 203.915 424.836 203.381 C 432.635 202.882, 433.429 203.018, 437.177 205.499 C 442.692 209.148, 443.021 208.072, 437.585 204.168 C 432.679 200.645, 429.631 200.339, 421.500 202.554 M 405.250 205.220 C 402.542 206.527, 402.450 207.394, 404.750 209.928 C 407.714 213.194, 409 214.889, 409 215.529 C 409 215.867, 409.563 216.719, 410.250 217.423 C 410.938 218.128, 413.300 220.875, 415.500 223.529 C 417.700 226.183, 419.950 228.838, 420.500 229.429 C 424.332 233.545, 428.994 240.334, 431.193 245 C 432.618 248.025, 435.906 255, 438.498 260.500 C 441.090 266, 443.549 271.175, 443.962 272 C 445.301 274.671, 447.837 274.206, 451.205 270.671 C 456.523 265.091, 458.006 263.079, 459.671 259.182 C 460.536 257.157, 461.630 254.733, 462.102 253.796 C 462.586 252.833, 462.574 251.855, 462.073 251.545 C 461.586 251.244, 460.418 253.441, 459.479 256.428 C 458.356 259.999, 456.073 263.763, 452.810 267.424 C 448.583 272.166, 447.565 272.837, 445.925 271.960 C 444.866 271.393, 444 270.520, 444 270.020 C 444 269.520, 440.636 262.094, 436.524 253.517 C 429.488 238.842, 425.461 232.712, 416.148 222.500 C 411.209 217.084, 407 211.364, 407 210.067 C 407 209.480, 406.550 209, 406 209 C 404.019 209, 405.054 206.930, 407.500 206 C 408.875 205.477, 410 204.813, 410 204.525 C 410 203.699, 407.710 204.034, 405.250 205.220 M 674 204.579 C 674 205.142, 678.890 209.472, 682.153 211.797 C 683.645 212.861, 683.872 212.861, 683.411 211.797 C 682.809 210.411, 674 203.653, 674 204.579 M 604.550 205.826 C 605.981 207.071, 615.286 213.564, 617 214.513 C 617.958 215.043, 617.811 214.558, 616.595 213.172 C 615.547 211.977, 614.085 211, 613.345 211 C 612.605 211, 611.997 210.662, 611.993 210.250 C 611.985 209.355, 605.759 205, 604.488 205 C 604 205, 604.028 205.372, 604.550 205.826 M 443 208.692 C 443 209.207, 445.031 211.150, 447.513 213.010 C 452.615 216.833, 453.841 218.499, 459.189 228.878 C 462.761 235.812, 462.964 236.686, 462.557 243.378 L 462.124 250.500 463.209 243.176 L 464.294 235.853 459.953 227.408 C 457.271 222.191, 453.870 217.346, 451.056 214.732 C 444.875 208.991, 443 207.585, 443 208.692 M 685.113 213.588 C 685.608 214.981, 700.568 228, 701.671 227.999 C 702.127 227.998, 701.150 226.840, 699.500 225.425 C 697.850 224.009, 694.925 221.464, 693 219.768 C 691.075 218.072, 688.426 215.743, 687.113 214.592 C 685.800 213.442, 684.900 212.990, 685.113 213.588 M 620.557 217.259 C 621.177 218.838, 628 223.315, 628 222.142 C 628 221.660, 626.216 220.085, 624.035 218.642 C 621.854 217.198, 620.289 216.576, 620.557 217.259 M 631.658 225.766 C 637.877 231.150, 639 231.968, 639 231.111 C 639 230.080, 630.536 222.993, 629.332 223.016 C 628.874 223.025, 629.921 224.262, 631.658 225.766 M 723.543 249.539 C 735.116 261.068, 747.716 274.075, 751.543 278.445 C 755.369 282.815, 760.553 288.665, 763.063 291.445 C 765.573 294.225, 768.723 297.896, 770.063 299.602 C 771.403 301.309, 775.015 305.809, 778.089 309.602 C 791.157 325.729, 807.333 348.015, 821.665 369.638 C 830.099 382.363, 837 393.121, 837 393.543 C 837 393.966, 838.138 395.804, 839.529 397.627 C 840.921 399.451, 844.896 406.469, 848.364 413.222 C 853.918 424.039, 858.334 434.411, 872.747 470.500 C 874.724 475.450, 876.715 479.928, 877.171 480.450 C 877.627 480.972, 878 481.961, 878 482.647 C 878 483.333, 879.525 487.180, 881.389 491.197 C 886.609 502.443, 890 510.017, 890 510.428 C 890 510.633, 891.745 514.559, 893.877 519.151 C 896.010 523.743, 898.746 529.750, 899.957 532.500 C 901.168 535.250, 903.887 541.100, 905.998 545.500 C 917.240 568.929, 927.037 589.152, 938.454 612.500 C 945.447 626.800, 952.802 641.875, 954.800 646 C 961.236 659.291, 970.916 674, 973.228 674 C 973.868 674, 973.007 672.538, 971.314 670.750 C 967.879 667.122, 964.280 661.564, 959.329 652.241 C 954.707 643.536, 954.470 643.061, 952.209 638 C 951.104 635.525, 943.458 619.775, 935.219 603 C 918.549 569.062, 908.152 547.531, 905.520 541.500 C 904.560 539.300, 902.292 534.350, 900.480 530.500 C 896.448 521.934, 891.770 511.691, 889.747 507 C 887.481 501.746, 885.439 497.056, 882.998 491.500 C 881.789 488.750, 880.432 485.600, 879.981 484.500 C 879.530 483.400, 878 479.940, 876.581 476.812 C 875.161 473.683, 874 470.640, 874 470.048 C 874 469.457, 873.550 468.079, 873 466.986 C 872.450 465.894, 871.550 464.106, 871 463.014 C 870.450 461.921, 870 460.569, 870 460.009 C 870 459.449, 868.875 456.658, 867.500 453.808 C 866.125 450.958, 865 448.029, 865 447.299 C 865 446.570, 864.588 445.191, 864.084 444.236 C 863.580 443.281, 862.499 440.925, 861.681 439 C 856.307 426.350, 847.464 407.887, 844.916 404 C 844.015 402.625, 840.214 396.550, 836.469 390.500 C 832.724 384.450, 824.526 371.850, 818.251 362.500 C 803.791 340.955, 802.092 338.547, 793.947 328.070 C 791.993 325.557, 787.994 320.350, 785.061 316.500 C 768.152 294.309, 749.044 273.024, 724.115 248.609 C 708.172 232.995, 707.044 231.928, 704.482 230.039 C 703.392 229.236, 711.969 238.011, 723.543 249.539 M 642 234.134 C 643.375 235.271, 646.282 237.711, 648.460 239.557 C 650.638 241.403, 652.591 242.743, 652.799 242.534 C 653.153 242.180, 646.707 236.028, 643.114 233.293 C 640.357 231.193, 639.357 231.948, 642 234.134 M 654.540 244.065 C 655.020 244.841, 656.582 246.461, 658.013 247.664 C 659.443 248.868, 662.383 251.427, 664.547 253.353 C 666.710 255.278, 668.654 256.680, 668.866 256.468 C 669.275 256.058, 659.082 246.478, 655.683 244.077 C 653.965 242.864, 653.797 242.862, 654.540 244.065 M 688.244 276.250 C 707.648 295.495, 716.322 304.647, 724.499 314.500 C 727.237 317.800, 730.052 321.101, 730.754 321.837 C 731.456 322.572, 733.211 324.721, 734.655 326.614 C 736.098 328.506, 737.505 329.828, 737.782 329.552 C 738.176 329.158, 730.539 319.352, 728.006 317 C 727.710 316.725, 726.187 314.925, 724.622 313 C 713.922 299.838, 673.016 258, 670.848 258 C 670.295 258, 678.123 266.212, 688.244 276.250 M 283.540 262.087 C 284.112 262.864, 285.395 266.200, 286.390 269.500 C 287.385 272.800, 288.604 276.281, 289.100 277.236 C 289.595 278.191, 290 279.804, 290 280.820 C 290 281.836, 290.308 282.975, 290.685 283.352 C 291.381 284.048, 292.858 287.876, 295.564 296 C 296.388 298.475, 297.499 301.281, 298.032 302.236 C 298.564 303.191, 299 304.852, 299 305.927 C 299 307.002, 299.450 308.160, 300 308.500 C 300.550 308.840, 301.003 309.879, 301.006 310.809 C 301.010 311.739, 301.685 313.789, 302.506 315.364 C 303.328 316.940, 304 318.858, 304 319.628 C 304 320.397, 304.397 321.809, 304.883 322.764 C 305.814 324.592, 306.657 326.645, 309.500 334 C 310.457 336.475, 311.696 339.625, 312.254 341 C 312.811 342.375, 313.657 344.512, 314.134 345.750 C 316.571 352.081, 321.162 362.452, 324.205 368.500 C 328.476 376.987, 334.239 387.542, 335.100 388.450 C 336.640 390.075, 336.093 388.226, 333.868 384.280 C 329.830 377.123, 318 353.074, 318 352.024 C 318 351.446, 317.588 350.191, 317.084 349.236 C 316.049 347.275, 313.935 342.196, 311.990 337 C 311.269 335.075, 310.302 333.073, 309.840 332.550 C 309.378 332.028, 309 330.784, 309 329.786 C 309 328.789, 308.578 327.191, 308.062 326.236 C 307.546 325.281, 305.943 321.125, 304.500 317 C 303.057 312.875, 301.454 308.719, 300.938 307.764 C 300.422 306.809, 300 305.148, 300 304.073 C 300 302.998, 299.604 301.873, 299.119 301.574 C 298.635 301.274, 298.001 300.010, 297.710 298.765 C 296.100 291.876, 284.836 261.446, 283.765 261.092 C 282.839 260.787, 282.779 261.053, 283.540 262.087 M 323.062 263.191 C 323.028 264.671, 323.450 266.160, 324 266.500 C 324.550 266.840, 325.003 268.104, 325.007 269.309 C 325.012 270.514, 326.518 276, 328.354 281.500 C 330.191 287, 332.479 294.087, 333.439 297.248 C 334.399 300.410, 335.670 303.296, 336.262 303.662 C 336.980 304.106, 337.078 303.689, 336.556 302.414 C 336.126 301.361, 335.562 299.600, 335.303 298.500 C 335.045 297.400, 334.473 295.600, 334.033 294.500 C 333.592 293.400, 332.413 289.800, 331.411 286.500 C 330.409 283.200, 329.232 280.072, 328.795 279.550 C 328.358 279.028, 328 277.559, 328 276.286 C 328 275.014, 327.590 273.191, 327.088 272.236 C 326.587 271.281, 325.490 268.250, 324.650 265.500 C 323.513 261.775, 323.108 261.186, 323.062 263.191 M 339 312.907 C 339 314.362, 343.120 326.739, 345.523 332.500 C 351.809 347.576, 355.174 354.913, 358.750 361.346 C 360.538 364.561, 362 367.599, 362 368.096 C 362 368.593, 362.450 369, 363 369 C 363.550 369, 364 369.525, 364 370.167 C 364 373, 380.162 395.279, 388.368 403.759 C 393.296 408.852, 398.372 414.555, 399.649 416.434 C 402.628 420.819, 406 429.367, 406 432.537 C 406 433.892, 406.450 435, 407 435 C 408.328 435, 408.269 431.765, 406.878 428.297 C 402.716 417.918, 399.945 413.852, 389.980 403.500 C 380.457 393.607, 377.789 390.438, 374.500 385.118 C 373.950 384.228, 372.038 381.394, 370.250 378.820 C 368.462 376.246, 367 373.892, 367 373.589 C 367 373.287, 365.509 370.668, 363.687 367.769 C 359.914 361.769, 351 343.708, 351 342.063 C 351 341.464, 350.587 340.191, 350.082 339.236 C 347.920 335.148, 344.797 327.437, 342.388 320.236 C 339.742 312.325, 339 310.720, 339 312.907 M 746.791 342.250 C 751.643 348.438, 758.698 357.890, 762.468 363.255 C 766.239 368.620, 769.507 372.826, 769.731 372.602 C 770.297 372.036, 767.691 368, 766.759 368 C 766.342 368, 766 367.520, 766 366.933 C 766 366.043, 763.722 362.623, 759.718 357.501 C 759.287 356.950, 755.749 352.250, 751.856 347.056 C 742.042 333.966, 739.619 331, 738.735 331 C 738.314 331, 741.939 336.063, 746.791 342.250 M 772.736 378.250 C 774.256 380.587, 775.837 382.650, 776.250 382.833 C 776.663 383.017, 777 383.586, 777 384.099 C 777 385.243, 784.209 396.371, 785.250 396.833 C 785.663 397.017, 786 397.570, 786 398.064 C 786 398.557, 787.575 401.423, 789.500 404.433 C 791.425 407.442, 793 410.194, 793 410.548 C 793 410.902, 793.835 412.386, 794.856 413.846 C 796.437 416.107, 803.591 429.211, 808.841 439.462 C 809.682 441.103, 810.544 441.869, 810.774 441.179 C 811.002 440.493, 810.753 439.385, 810.220 438.716 C 809.687 438.047, 807.598 434.350, 805.576 430.500 C 803.555 426.650, 801.480 422.825, 800.965 422 C 800.451 421.175, 797.119 415.449, 793.563 409.275 C 790.006 403.101, 786.242 396.801, 785.197 395.275 C 784.153 393.749, 780.644 388.353, 777.399 383.284 C 774.155 378.216, 771.156 374.053, 770.736 374.034 C 770.316 374.015, 771.216 375.913, 772.736 378.250 M 336 390.347 C 336 391.342, 340.057 398.311, 342.600 401.683 C 343.920 403.434, 345 405.177, 345 405.556 C 345 407.301, 354.947 420.009, 359.829 424.500 C 362.817 427.250, 366.329 431.179, 367.631 433.230 C 371.413 439.185, 370.963 441.930, 363.862 456.236 C 363.388 457.191, 363 458.909, 363 460.052 C 363 461.196, 362.534 463.002, 361.965 464.066 C 361.270 465.363, 361.264 466, 361.946 466 C 362.505 466, 363.245 464.762, 363.591 463.250 C 364.791 457.998, 367.011 451.913, 369.559 446.884 C 373.513 439.080, 371.523 434.011, 360.574 424.003 C 356.126 419.936, 339 395.473, 339 393.186 C 339 392.668, 338.325 391.685, 337.500 391 C 336.675 390.315, 336 390.022, 336 390.347 M 405.636 440.640 C 404.613 448.102, 405.025 449.895, 406.523 444.500 C 408.148 438.649, 408.339 436, 407.136 436 C 406.661 436, 405.986 438.088, 405.636 440.640 M 811 443.299 C 811 443.528, 812.575 446.737, 814.500 450.431 C 816.425 454.124, 818 457.794, 818 458.586 C 818 459.379, 818.417 460.809, 818.926 461.764 C 819.435 462.719, 820.537 465.300, 821.374 467.500 C 822.212 469.700, 822.920 470.823, 822.948 469.996 C 823.059 466.755, 813.894 444.671, 811.935 443.460 C 811.421 443.142, 811 443.070, 811 443.299 M 401.557 460.107 C 401.288 460.873, 399.908 465.100, 398.492 469.500 C 397.075 473.900, 395.521 478.400, 395.038 479.500 C 394.555 480.600, 392.963 484.875, 391.500 489 C 390.037 493.125, 388.444 497.400, 387.959 498.500 C 386.301 502.269, 382 516.444, 382.052 517.972 C 382.115 519.863, 384.215 514.475, 386.521 506.500 C 387.476 503.200, 388.649 500.073, 389.129 499.550 C 389.608 499.028, 390 497.784, 390 496.786 C 390 495.789, 390.405 494.191, 390.900 493.236 C 392.257 490.619, 396.685 479.035, 398.062 474.500 C 398.730 472.300, 399.597 469.600, 399.989 468.500 C 402.141 462.453, 402.916 459.583, 402.506 459.173 C 402.254 458.920, 401.827 459.341, 401.557 460.107 M 360.615 471.560 C 359.486 474.504, 357.019 487.352, 357.492 487.826 C 358.047 488.380, 358.278 487.606, 360.395 478.105 C 361.936 471.188, 362.050 467.822, 360.615 471.560 M 823 472.941 C 823 473.459, 823.450 474.160, 824 474.500 C 824.550 474.840, 825 475.998, 825 477.073 C 825 478.961, 825.361 479.934, 827.844 484.736 C 828.480 485.966, 829 487.434, 829 487.999 C 829 488.563, 830.519 492.281, 832.375 496.262 C 834.230 500.243, 836.538 505.300, 837.502 507.500 C 840.542 514.434, 849.753 533.962, 863.209 562 C 873.349 583.130, 881.347 600.637, 889.705 620 C 900.251 644.430, 921.334 684.999, 922.750 683.584 C 923.036 683.297, 922.431 681.811, 921.403 680.281 C 916.735 673.329, 899.888 639.920, 891.510 621 C 889.440 616.325, 886.678 610.124, 885.373 607.220 C 884.068 604.317, 883 601.780, 883 601.584 C 883 601.263, 881.285 597.539, 870.755 575 C 869.084 571.425, 864.806 562.425, 861.247 555 C 843.713 518.419, 842.444 515.722, 837.255 504 C 836.403 502.075, 834.422 497.833, 832.853 494.573 C 831.284 491.313, 830 488.044, 830 487.309 C 830 486.574, 829.550 485.079, 829 483.986 C 826.572 479.164, 826.215 478.257, 825.548 475.217 C 824.912 472.321, 823 470.613, 823 472.941 M 356.136 491.191 C 356.061 492.671, 355.600 494.129, 355.110 494.432 C 354.621 494.734, 354.001 496.448, 353.732 498.241 C 353.464 500.033, 352.551 503.974, 351.704 506.999 C 350.857 510.023, 350.341 512.675, 350.558 512.892 C 351.027 513.360, 351.148 513.018, 354.517 501.729 C 355.956 496.905, 356.940 491.955, 356.703 490.729 C 356.331 488.802, 356.254 488.865, 356.136 491.191 M 349.116 517.191 C 349.052 518.671, 348.644 520.102, 348.209 520.371 C 347.774 520.640, 347.306 522.530, 347.168 524.572 C 347.031 526.614, 346.487 529.091, 345.959 530.076 C 344.751 532.333, 344.750 533, 345.955 533 C 346.480 533, 347.175 531.313, 347.499 529.250 C 347.823 527.188, 348.566 523.887, 349.150 521.916 C 349.733 519.945, 349.990 517.470, 349.721 516.416 C 349.361 515.007, 349.201 515.212, 349.116 517.191 M 380.472 523.709 C 380.149 525.244, 379.461 528.387, 378.942 530.693 C 378.424 532.999, 378.030 535.924, 378.067 537.193 C 378.165 540.563, 380.966 531.209, 380.985 527.450 C 380.993 525.773, 381.489 523.911, 382.087 523.313 C 382.847 522.553, 382.856 522.029, 382.116 521.572 C 381.506 521.194, 380.811 522.097, 380.472 523.709 M 344.687 538.199 C 344.388 540.014, 343.833 542.737, 343.455 544.250 C 343.048 545.877, 343.176 547, 343.768 547 C 344.319 547, 345.084 544.487, 345.467 541.416 C 346.220 535.391, 345.583 532.763, 344.687 538.199 M 375.989 548.250 C 375.983 549.487, 375.749 552.300, 375.470 554.500 C 374.991 558.272, 375.046 558.215, 376.437 553.500 C 378.209 547.492, 378.321 546, 377 546 C 376.450 546, 375.995 547.013, 375.989 548.250 M 341.436 561.306 C 340.850 565.049, 340.709 568.320, 341.121 568.575 C 342.073 569.163, 343.278 561.333, 342.835 557.441 C 342.606 555.428, 342.164 556.646, 341.436 561.306 M 373.457 576.750 C 372.706 587.719, 373.393 616.727, 374.428 617.762 C 375.951 619.284, 376.083 616.112, 374.992 604.316 C 374.105 594.738, 374.082 588.708, 374.902 580.566 C 376.233 567.336, 376.251 566, 375.096 566 C 374.599 566, 373.861 570.837, 373.457 576.750 M 340.389 598.500 C 340.390 605.650, 340.550 608.444, 340.742 604.708 C 340.935 600.973, 340.934 595.123, 340.739 591.708 C 340.545 588.294, 340.387 591.350, 340.389 598.500 M 488.625 590.450 C 487.706 591.852, 487.428 593, 488.008 593 C 488.588 593, 489.322 592.325, 489.638 591.500 C 490.783 588.518, 493.669 589.975, 496.341 594.885 C 497.803 597.572, 499 600.696, 499 601.826 C 499 602.957, 499.498 604.190, 500.107 604.566 C 501.869 605.655, 500.148 599.174, 497.234 593.750 C 495.830 591.138, 494.340 589, 493.923 589 C 493.505 589, 492.518 588.752, 491.730 588.450 C 490.884 588.125, 489.610 588.946, 488.625 590.450 M 483.892 597.192 C 482.613 599.012, 481.101 600.983, 480.533 601.573 C 479.965 602.163, 478.150 604.379, 476.500 606.497 C 474.850 608.614, 472.320 611.732, 470.879 613.424 C 466.058 619.081, 457.451 633.425, 454.631 640.500 C 453.096 644.350, 451.427 648.281, 450.920 649.236 C 450.414 650.191, 450 652.077, 450 653.427 C 450 654.777, 449.611 656.123, 449.135 656.417 C 448.659 656.711, 448.028 658.650, 447.733 660.726 C 447.438 662.802, 446.880 665.288, 446.492 666.250 C 446.104 667.212, 446.195 668, 446.696 668 C 447.489 668, 448.555 664.455, 450.608 655 C 450.906 653.625, 451.525 651.600, 451.982 650.500 C 452.440 649.400, 453.572 646.475, 454.498 644 C 458.066 634.466, 462.267 627.101, 470.184 616.500 C 474.703 610.450, 478.662 605.275, 478.984 605 C 481.024 603.254, 487.188 594.855, 486.750 594.417 C 486.458 594.124, 485.171 595.373, 483.892 597.192 M 501.063 608.264 C 501.028 609.784, 501.404 611.809, 501.899 612.764 C 503.017 614.925, 507.970 626.374, 511.517 635 C 514.573 642.430, 516.003 645.699, 520.484 655.500 C 522.244 659.350, 524.499 664.300, 525.494 666.500 C 529.834 676.093, 541.732 699.348, 549.285 713 C 550.959 716.025, 553.443 720.525, 554.805 723 C 556.167 725.475, 560.481 732.900, 564.391 739.500 C 568.301 746.100, 571.683 751.935, 571.906 752.467 C 572.129 752.998, 577.475 761.548, 583.786 771.467 C 601.621 799.494, 622.380 829, 624.263 829 C 624.742 829, 623.610 827.087, 621.747 824.750 C 619.884 822.413, 616.164 817.350, 613.481 813.500 C 610.798 809.650, 608.242 806.350, 607.801 806.167 C 607.360 805.983, 607 805.422, 607 804.919 C 607 803.832, 599.861 793.647, 598.763 793.167 C 598.343 792.983, 598 792.442, 598 791.965 C 598 791.487, 595.975 788.199, 593.500 784.659 C 591.025 781.118, 589 777.947, 589 777.613 C 589 777.278, 587.425 774.812, 585.500 772.133 C 583.575 769.453, 582 766.947, 582 766.564 C 582 766.180, 580.875 764.392, 579.500 762.589 C 578.125 760.786, 577 759.021, 577 758.666 C 577 758.311, 575.059 754.978, 572.687 751.260 C 570.314 747.542, 568.074 743.825, 567.708 743 C 567.342 742.175, 565.926 739.700, 564.561 737.500 C 563.197 735.300, 561.308 731.925, 560.363 730 C 559.418 728.075, 557.878 725.375, 556.941 724 C 556.003 722.625, 553.677 718.575, 551.771 715 C 549.865 711.425, 546.134 704.450, 543.480 699.500 C 534.517 682.782, 524.124 661.242, 516.701 644 C 515.873 642.075, 514.206 638.250, 512.998 635.500 C 511.789 632.750, 510.457 629.600, 510.036 628.500 C 509.616 627.400, 508.308 624.420, 507.130 621.878 C 505.951 619.336, 504.119 614.611, 503.057 611.378 C 501.635 607.049, 501.109 606.228, 501.063 608.264 M 341.552 632.420 C 341.848 636.225, 342.460 639.999, 342.912 640.806 C 343.950 642.661, 343.129 632.568, 341.911 628.500 C 341.271 626.361, 341.168 627.486, 341.552 632.420 M 375.578 632.500 C 375.904 635.800, 376.582 638.928, 377.085 639.450 C 378.432 640.849, 378.149 637.311, 376.449 631.500 L 374.986 626.500 375.578 632.500 M 343.044 648.050 C 343.068 648.847, 343.750 651.750, 344.559 654.500 L 346.029 659.500 345.453 654 C 345.136 650.975, 344.454 648.072, 343.938 647.550 C 343.349 646.953, 343.016 647.139, 343.044 648.050 M 380.504 660 C 381.308 668.384, 386.037 685.382, 390.938 697.500 C 392.717 701.900, 394.535 706.400, 394.978 707.500 C 397.617 714.057, 402.151 723.182, 402.564 722.769 C 402.832 722.502, 402.075 720.307, 400.883 717.892 C 399.691 715.476, 398.330 712.487, 397.858 711.250 C 396.985 708.960, 396.424 707.587, 393.466 700.500 C 389.215 690.317, 385.265 677.903, 382.965 667.500 C 382.478 665.300, 381.628 661.700, 381.076 659.500 L 380.072 655.500 380.504 660 M 445.150 672.316 C 445.067 673.864, 444.549 675.975, 443.997 677.005 C 443.350 678.214, 443.340 679.092, 443.968 679.480 C 445.232 680.261, 446.276 676.045, 445.728 672.371 L 445.300 669.500 445.150 672.316 M 348.501 676 C 349.247 680.600, 351.771 687.468, 351.918 685.299 C 352.034 683.603, 349.160 672.821, 348.401 672.099 C 348.055 671.769, 348.100 673.525, 348.501 676 M 492.390 680.427 C 492.088 681.212, 492.041 682.900, 492.285 684.177 C 492.690 686.302, 492.739 686.270, 492.864 683.809 C 493.063 679.875, 494.390 679.676, 496.188 683.311 C 500.246 691.520, 512.047 715.133, 512.885 716.720 C 513.402 717.699, 515.995 723, 518.647 728.500 C 524.533 740.705, 534.373 755.160, 547.203 770.450 C 547.706 771.050, 548 771.050, 547.999 770.450 C 547.998 769.928, 545.359 766.271, 542.133 762.325 C 531.266 749.030, 524.477 737.628, 509.957 708.282 C 502.006 692.212, 494.923 679.050, 494.219 679.032 C 493.514 679.014, 492.691 679.642, 492.390 680.427 M 987 680 C 987 680.550, 987.494 681, 988.099 681 C 988.703 681, 990.744 681.734, 992.635 682.631 C 994.525 683.528, 996.280 684.054, 996.534 683.799 C 996.789 683.545, 995.760 682.758, 994.248 682.052 C 992.737 681.345, 990.719 680.369, 989.764 679.883 C 987.532 678.748, 987 678.770, 987 680 M 442.656 686.715 C 442.322 688.247, 441.760 690.513, 441.407 691.750 C 441.032 693.067, 441.204 694, 441.822 694 C 442.403 694, 443.184 691.954, 443.559 689.454 C 444.313 684.426, 443.617 682.314, 442.656 686.715 M 924.726 687.612 C 929.104 695.292, 939.661 707.672, 940.833 706.501 C 941.063 706.271, 939.839 704.894, 938.113 703.442 C 936.387 701.989, 933.419 698.483, 931.518 695.651 C 929.616 692.818, 926.911 689.150, 925.506 687.500 L 922.952 684.500 924.726 687.612 M 1004 686.693 C 1004 687.138, 1006.813 688.779, 1010.250 690.338 C 1013.688 691.898, 1017.512 693.660, 1018.748 694.255 C 1019.985 694.850, 1021.222 695.111, 1021.497 694.836 C 1022.014 694.319, 1021.534 694.061, 1011.500 689.456 C 1008.200 687.942, 1005.163 686.518, 1004.750 686.293 C 1004.337 686.067, 1004 686.247, 1004 686.693 M 352 690.941 C 352 691.459, 352.450 692.160, 353 692.500 C 353.550 692.840, 354 694.415, 354 696 C 354 697.585, 354.450 699.160, 355 699.500 C 355.550 699.840, 356 700.955, 356 701.978 C 356 703.001, 356.633 705.112, 357.407 706.669 C 358.801 709.472, 360.571 713.634, 362.014 717.500 C 362.938 719.976, 372.665 739.765, 374.303 742.500 C 377.982 748.647, 387.200 761.496, 392.745 768.210 C 398.925 775.692, 408.786 784.548, 409.803 783.530 C 410.079 783.254, 408.999 782.009, 407.403 780.764 C 390.887 767.882, 375.043 744.814, 362.234 715 C 359.929 709.635, 355.450 696.614, 354.581 692.750 C 354.009 690.208, 352 688.800, 352 690.941 M 1029 698.023 C 1029 698.595, 1029.787 699.306, 1030.750 699.604 C 1031.713 699.902, 1033.281 700.563, 1034.236 701.073 C 1035.191 701.583, 1036.616 702, 1037.403 702 C 1038.190 702, 1039.006 702.518, 1039.217 703.150 C 1039.428 703.782, 1040.189 704.104, 1040.909 703.864 C 1041.630 703.623, 1040.032 702.382, 1037.359 701.104 C 1034.687 699.826, 1031.713 698.377, 1030.750 697.882 C 1029.629 697.306, 1029 697.357, 1029 698.023 M 440.172 705.076 C 438.760 711.192, 438.660 713.764, 439.886 712.450 C 440.777 711.495, 442.492 700, 441.744 700 C 441.524 700, 440.816 702.284, 440.172 705.076 M 1054 708.912 C 1054 709.428, 1056.475 711.190, 1059.500 712.829 C 1062.525 714.467, 1065 715.387, 1065 714.872 C 1065 714.358, 1064.213 713.647, 1063.250 713.292 C 1062.287 712.937, 1059.813 711.595, 1057.750 710.311 C 1055.688 709.026, 1054 708.397, 1054 708.912 M 957.527 715.372 C 960.205 717.235, 966.483 718.590, 965.566 717.107 C 965.190 716.498, 963.559 716, 961.941 716 C 960.323 716, 959 715.550, 959 715 C 959 714.450, 958.225 714, 957.277 714 C 955.769 714, 955.800 714.170, 957.527 715.372 M 485.625 718.125 C 485.281 719.844, 485.052 722.656, 485.115 724.375 L 485.230 727.500 485.974 724 C 486.383 722.075, 487.055 719.263, 487.467 717.750 C 487.915 716.106, 487.821 715, 487.233 715 C 486.693 715, 485.969 716.406, 485.625 718.125 M 437.976 721.083 C 437.963 722.962, 437.560 726.190, 437.080 728.255 C 436.217 731.974, 437.374 734.662, 438.377 731.265 C 439.216 728.420, 439.442 719.109, 438.690 718.357 C 438.311 717.977, 437.989 719.204, 437.976 721.083 M 1079 723.918 C 1079 724.513, 1079.638 725, 1080.417 725 C 1081.196 725, 1081.983 725.337, 1082.167 725.750 C 1082.649 726.835, 1093.781 734, 1094.985 734 C 1095.543 734, 1096.003 734.337, 1096.007 734.750 C 1096.016 735.763, 1102.920 740.413, 1103.522 739.812 C 1103.784 739.549, 1100.061 736.639, 1095.249 733.345 C 1083.157 725.066, 1079 722.654, 1079 723.918 M 403 724.854 C 403 727.128, 412.973 740.718, 417.126 744.102 C 421.729 747.855, 425.932 750.189, 427.277 749.741 C 427.795 749.568, 426.101 748.338, 423.512 747.006 C 419.430 744.907, 408 733.544, 408 731.586 C 408 731.205, 406.875 729.238, 405.500 727.215 C 404.125 725.191, 403 724.129, 403 724.854 M 483.456 734.321 C 483.124 735.642, 482.998 738.248, 483.176 740.112 C 483.475 743.241, 483.583 743.096, 484.585 738.207 C 485.648 733.028, 484.645 729.580, 483.456 734.321 M 436.180 741.685 C 435.892 746.771, 434.279 750, 432.025 750 C 430.911 750, 430 750.450, 430 751 C 430 752.698, 433.596 752.103, 435.404 750.106 C 436.668 748.710, 437.019 746.936, 436.739 743.356 C 436.505 740.349, 436.292 739.713, 436.180 741.685 M 1112 745.736 C 1112 746.237, 1115.200 748.833, 1119.110 751.505 C 1123.021 754.177, 1126.734 756.844, 1127.360 757.432 C 1130.306 760.193, 1136 764.008, 1136 763.220 C 1136 762.736, 1133.862 760.823, 1131.250 758.971 C 1128.638 757.119, 1126.275 755.328, 1126 754.991 C 1124.607 753.286, 1112 744.952, 1112 745.736 M 1068.357 758.500 C 1069.182 759.325, 1070.166 760, 1070.545 760 C 1070.923 760, 1073.378 761.575, 1076 763.500 C 1078.622 765.425, 1081.233 767, 1081.801 767 C 1082.369 767, 1082.983 767.361, 1083.167 767.802 C 1083.687 769.055, 1101 780.057, 1101 779.135 C 1101 778.684, 1099.425 777.467, 1097.500 776.430 C 1095.575 775.393, 1094 774.198, 1094 773.773 C 1094 773.348, 1093.534 773, 1092.965 773 C 1092.396 773, 1087.527 769.962, 1082.146 766.250 C 1071.947 759.214, 1068.428 757, 1067.442 757 C 1067.120 757, 1067.532 757.675, 1068.357 758.500 M 478.441 760.750 C 476.825 768.195, 474.013 772.988, 467.217 779.880 C 463.757 783.388, 461.148 786.481, 461.420 786.753 C 461.691 787.024, 464.520 784.604, 467.707 781.373 C 473.313 775.690, 479.048 766.276, 479.016 762.809 C 479.007 761.879, 479.450 760.840, 480 760.500 C 481.285 759.706, 481.298 758, 480.019 758 C 479.480 758, 478.770 759.237, 478.441 760.750 M 1137.118 763.561 C 1137.619 764.952, 1145.504 772, 1146.560 772 C 1147.009 772, 1146.280 771.026, 1144.939 769.836 C 1143.597 768.646, 1141.203 766.509, 1139.618 765.086 C 1138.034 763.664, 1136.909 762.977, 1137.118 763.561 M 550.127 773.750 C 557.316 782.920, 594.671 819.662, 595.730 818.604 C 595.941 818.393, 593.500 815.838, 590.307 812.926 C 580.864 804.316, 551 773.922, 551 772.922 C 551 772.415, 550.495 772, 549.878 772 C 549.143 772, 549.229 772.604, 550.127 773.750 M 1149.048 773.628 C 1149.116 774.861, 1158.289 782.044, 1158.951 781.383 C 1159.251 781.082, 1158.598 780.190, 1157.498 779.399 C 1156.399 778.609, 1154.811 777.408, 1153.968 776.731 C 1153.126 776.054, 1151.663 774.882, 1150.718 774.128 C 1149.773 773.373, 1149.022 773.148, 1149.048 773.628 M 1164.486 786.348 C 1167.228 788.830, 1169.670 790.663, 1169.913 790.420 C 1170.488 789.845, 1167.399 787.038, 1163 784.139 C 1160.337 782.384, 1160.692 782.912, 1164.486 786.348 M 1109 785.965 C 1109 786.534, 1109.380 787, 1109.844 787 C 1110.309 787, 1111.977 788.107, 1113.551 789.460 C 1115.126 790.813, 1116.652 791.682, 1116.942 791.391 C 1117.473 790.861, 1114.014 787.814, 1110.750 785.936 C 1109.562 785.253, 1109 785.262, 1109 785.965 M 428.954 792.735 C 433.468 794.307, 442.842 794.296, 445.681 792.715 C 447.495 791.704, 445.973 791.500, 436.635 791.500 C 426.479 791.500, 425.747 791.618, 428.954 792.735 M 1172.113 791.627 C 1172.692 793.314, 1183.266 802.068, 1183.926 801.407 C 1184.240 801.093, 1183.598 800.190, 1182.498 799.399 C 1179.934 797.555, 1177.117 795.276, 1174.113 792.615 C 1172.800 791.452, 1171.900 791.007, 1172.113 791.627 M 1125 796.684 C 1125 797.681, 1134.505 804.633, 1140.379 807.932 C 1142.371 809.051, 1144 809.556, 1144 809.056 C 1144 808.556, 1142.763 807.521, 1141.250 806.757 C 1137.332 804.778, 1133.583 802.592, 1133 801.947 C 1131.298 800.065, 1125 795.922, 1125 796.684 M 1186.049 803.691 C 1186.075 804.136, 1188.438 806.422, 1191.299 808.770 C 1199.479 815.486, 1202.147 818.077, 1207.498 824.500 C 1210.247 827.800, 1212.834 830.650, 1213.248 830.833 C 1213.662 831.017, 1214.002 831.692, 1214.005 832.333 C 1214.007 832.975, 1215.582 835.213, 1217.505 837.306 C 1219.427 839.399, 1221 841.361, 1221 841.667 C 1221 842.851, 1229.286 852.047, 1229.848 851.486 C 1230.175 851.159, 1229.960 850.578, 1229.371 850.196 C 1228.351 849.533, 1224.870 845.151, 1215.760 833.065 C 1213.507 830.075, 1210.952 826.703, 1210.082 825.571 C 1208.031 822.902, 1196.503 811.348, 1192 807.449 C 1187.682 803.710, 1185.985 802.639, 1186.049 803.691 M 1152.387 814.817 C 1153.378 816.421, 1165.265 824.296, 1164.860 823.081 C 1164.633 822.399, 1163.155 821.090, 1161.575 820.171 C 1159.995 819.252, 1157.578 817.487, 1156.205 816.250 C 1153.784 814.068, 1151.363 813.160, 1152.387 814.817 M 597.620 820.453 C 597.947 821.304, 598.520 822, 598.893 822 C 599.267 822, 601.580 823.764, 604.034 825.919 C 606.487 828.075, 608.649 829.685, 608.836 829.497 C 609.201 829.132, 601.945 822.365, 598.871 820.203 C 597.297 819.095, 597.113 819.132, 597.620 820.453 M 1167.500 825.561 C 1171.820 828.795, 1181 838.377, 1181 839.652 C 1181 840.393, 1181.480 841, 1182.067 841 C 1182.709 841, 1182.864 841.897, 1182.455 843.250 C 1181.896 845.101, 1182.011 845.275, 1183.105 844.232 C 1184.209 843.180, 1184.110 842.360, 1182.525 839.416 C 1180.391 835.454, 1168.601 823.982, 1166.713 824.032 C 1166.046 824.049, 1166.400 824.737, 1167.500 825.561 M 625.016 830.364 C 624.994 831.549, 635.149 843.184, 635.713 842.620 C 635.962 842.372, 635.039 840.893, 633.662 839.334 C 632.284 837.775, 629.779 834.925, 628.095 833 C 626.410 831.075, 625.025 829.889, 625.016 830.364 M 613.500 833.634 C 620.140 839.323, 621 839.952, 621 839.114 C 621 838.071, 612.525 830.986, 611.332 831.032 C 610.874 831.049, 611.850 832.220, 613.500 833.634 M 636.817 854.434 C 653.031 870.374, 657.194 874.139, 657.862 873.472 C 658.108 873.226, 656.102 871.115, 653.405 868.782 C 650.707 866.448, 642.973 859.018, 636.218 852.269 C 629.463 845.521, 623.530 840, 623.034 840 C 622.539 840, 628.741 846.495, 636.817 854.434 M 1129.500 844.517 L 1122.500 845.763 1127.610 845.881 C 1134.295 846.037, 1142 844.956, 1142 843.864 C 1142 842.758, 1138.286 842.952, 1129.500 844.517 M 637 844.616 C 637 845.751, 659.970 869.363, 660.530 868.803 C 660.745 868.588, 655.539 862.846, 648.961 856.043 C 642.382 849.240, 637 844.098, 637 844.616 M 1105 847 C 1102.927 847.664, 1103.269 847.815, 1107 847.885 C 1109.475 847.931, 1112.175 847.533, 1113 847 C 1114.873 845.789, 1108.780 845.789, 1105 847 M 1231.033 853.691 C 1231.015 854.346, 1231.503 855.193, 1232.118 855.573 C 1232.830 856.013, 1233.013 857.892, 1232.621 860.752 C 1232.084 864.663, 1232.198 865.081, 1233.503 863.998 C 1235.602 862.255, 1235.366 857.661, 1233.033 854.861 C 1231.952 853.562, 1231.052 853.036, 1231.033 853.691 M 662 868.819 C 662 869.296, 664.241 871.577, 666.981 873.887 C 670.482 876.839, 671.893 878.730, 671.731 880.252 C 671.584 881.631, 672.136 882.550, 673.250 882.782 C 675.970 883.349, 675.372 880.288, 672.162 877.216 C 665.876 871.200, 662 867.997, 662 868.819 M 1016.280 873.578 C 1014.543 874.937, 1012.438 877.420, 1011.602 879.095 C 1010.143 882.021, 1010.229 882.424, 1013.792 889.320 C 1017.588 896.670, 1021 904.213, 1021 905.256 C 1021 906.417, 1032.226 922.107, 1032.710 921.623 C 1032.984 921.350, 1030.911 917.805, 1028.105 913.746 C 1025.299 909.687, 1021.205 902.159, 1019.008 897.019 C 1016.811 891.878, 1014.293 886.876, 1013.412 885.903 C 1011.070 883.315, 1012.453 878.688, 1016.675 874.980 C 1020.976 871.204, 1020.676 870.138, 1016.280 873.578 M 659.924 875.408 C 661.421 877.213, 667.987 880.347, 668.724 879.609 C 669.033 879.300, 668.434 878.738, 667.393 878.361 C 666.352 877.983, 664.306 876.848, 662.846 875.837 C 659.688 873.651, 658.296 873.447, 659.924 875.408 M 1162.750 878.716 C 1159.756 879.170, 1158.905 881.048, 1161.750 880.924 C 1162.713 880.882, 1165.075 880.241, 1167 879.500 C 1169.961 878.360, 1170.115 878.164, 1168 878.226 C 1166.625 878.266, 1164.263 878.487, 1162.750 878.716 M 1146 880.731 C 1144.075 880.958, 1142.050 881.615, 1141.500 882.193 C 1140.805 882.923, 1141.719 883.025, 1144.500 882.530 C 1147.938 881.917, 1153.297 879.828, 1150.500 880.190 C 1149.950 880.262, 1147.925 880.505, 1146 880.731 M 1074.714 896.619 C 1074.384 896.949, 1075.213 898.961, 1076.557 901.090 C 1077.901 903.219, 1079 905.416, 1079 905.973 C 1079 907.493, 1097.931 926, 1099.486 926 C 1100.227 926, 1100.983 926.356, 1101.167 926.791 C 1102.109 929.029, 1120.198 940.680, 1119.367 938.514 C 1119.047 937.681, 1118.400 937, 1117.928 937 C 1117.455 937, 1112.441 933.795, 1106.785 929.877 C 1094.288 921.222, 1081.391 908.455, 1077.875 901.259 C 1076.467 898.377, 1075.045 896.289, 1074.714 896.619 M 1037.330 928.642 C 1042.636 935.585, 1061.036 954.298, 1061.803 953.531 C 1062.096 953.237, 1059.478 950.410, 1055.984 947.248 C 1052.489 944.087, 1046.271 937.450, 1042.164 932.500 C 1033.696 922.292, 1030.571 919.798, 1037.330 928.642 M 1152.012 958.740 C 1152.018 959.158, 1154.493 961.214, 1157.512 963.310 C 1160.530 965.405, 1163 966.707, 1163 966.202 C 1163 965.696, 1160.525 963.640, 1157.500 961.631 C 1154.475 959.623, 1152.005 958.322, 1152.012 958.740 M 1073.043 961.682 C 1073.084 962.465, 1088.325 974.070, 1090.404 974.901 C 1090.957 975.122, 1092.297 976.130, 1093.382 977.141 C 1094.467 978.152, 1095.611 978.722, 1095.926 978.408 C 1096.240 978.094, 1095.754 977.311, 1094.845 976.668 C 1093.936 976.026, 1090.631 973.700, 1087.499 971.500 C 1084.368 969.300, 1081.287 967.035, 1080.653 966.467 C 1077.933 964.030, 1073.003 960.931, 1073.043 961.682 M 1174.047 974.628 C 1174.073 975.107, 1176.641 977.525, 1179.753 980 C 1194.294 991.564, 1218.670 1015.769, 1229.500 1029.397 C 1233.350 1034.242, 1241.556 1043.309, 1247.736 1049.547 C 1256.194 1058.083, 1259.619 1062.323, 1261.587 1066.694 C 1263.025 1069.887, 1265.281 1074.756, 1266.601 1077.514 C 1269.390 1083.345, 1269.491 1084, 1267.592 1084 C 1266.246 1084, 1255.300 1075.721, 1253.765 1073.543 C 1253.259 1072.824, 1253.026 1072.831, 1253.015 1073.563 C 1252.983 1075.820, 1266.018 1086, 1268.941 1086 C 1271.682 1086, 1271.718 1081.960, 1269 1079.500 C 1267.900 1078.505, 1267 1077.079, 1267 1076.331 C 1267 1075.584, 1266.601 1074.191, 1266.112 1073.236 C 1265.624 1072.281, 1264.029 1068.979, 1262.568 1065.898 C 1260.715 1061.991, 1256.520 1056.835, 1248.706 1048.860 C 1242.543 1042.570, 1235.865 1035.416, 1233.868 1032.962 C 1224.560 1021.529, 1222.066 1018.737, 1211.123 1007.500 C 1204.696 1000.900, 1196.301 992.721, 1192.468 989.323 C 1183.930 981.755, 1182.523 980.563, 1175.718 975.128 C 1174.773 974.373, 1174.021 974.148, 1174.047 974.628 M 1107 985.968 C 1110.690 989.040, 1114 990.429, 1114 988.906 C 1114 988.408, 1113.305 988, 1112.456 988 C 1111.607 988, 1109.699 986.875, 1108.217 985.500 C 1106.734 984.125, 1105.066 983.012, 1104.510 983.027 C 1103.955 983.042, 1105.075 984.365, 1107 985.968 M 1116.517 991.151 C 1116.809 991.893, 1119.962 993.850, 1123.523 995.500 C 1127.085 997.150, 1129.999 998.837, 1129.999 999.250 C 1130 999.663, 1130.810 1000, 1131.800 1000 C 1132.790 1000, 1134.140 1000.540, 1134.800 1001.200 C 1135.733 1002.133, 1136 1002.126, 1136 1001.169 C 1136 1000.491, 1135.213 999.687, 1134.250 999.381 C 1132.206 998.730, 1126.277 995.710, 1120.243 992.246 C 1117.646 990.755, 1116.194 990.328, 1116.517 991.151 M 1158.559 1012.468 C 1159.626 1013.276, 1160.971 1013.951, 1161.546 1013.968 C 1162.121 1013.986, 1168.308 1016.887, 1175.296 1020.416 C 1182.283 1023.945, 1188 1026.503, 1188 1026.101 C 1188 1025.204, 1167.993 1014.988, 1166.250 1014.995 C 1165.563 1014.998, 1165 1014.550, 1165 1014 C 1165 1013.450, 1164.127 1013, 1163.059 1013 C 1161.991 1013, 1160.840 1012.550, 1160.500 1012 C 1160.160 1011.450, 1159.148 1011, 1158.250 1011 C 1156.881 1011, 1156.930 1011.237, 1158.559 1012.468 M 608.500 1027.715 C 595.550 1029.505, 579.123 1036.779, 572.060 1043.850 C 563.079 1052.840, 561 1060.380, 561 1083.955 C 561 1103.256, 562.100 1107.668, 568.760 1115.083 C 575.218 1122.273, 583.356 1127.301, 594.307 1130.866 C 609.986 1135.970, 612.605 1136.254, 651 1137.011 C 671.075 1137.407, 688.876 1138.185, 690.558 1138.741 C 695.504 1140.374, 699.329 1142.627, 702 1145.483 C 704.410 1148.059, 704.512 1148.713, 704.822 1163.670 C 705.136 1178.837, 705.087 1179.270, 702.623 1182.994 C 700.949 1185.523, 698.152 1187.761, 694.301 1189.652 L 688.500 1192.500 624.750 1192.785 L 561 1193.070 561 1207.580 L 561 1222.091 629.250 1221.762 C 697.056 1221.435, 697.555 1221.418, 706 1219.110 C 726.237 1213.579, 741.308 1202.836, 745.838 1190.712 C 747.790 1185.486, 748 1182.977, 748 1164.829 C 748 1152.122, 747.558 1143.219, 746.797 1140.616 C 744.923 1134.202, 734.389 1124.210, 724.625 1119.585 C 708.012 1111.715, 695.055 1110, 652.218 1110 C 617.873 1110, 614.790 1109.548, 609.291 1103.709 C 604.888 1099.034, 604 1095.194, 604 1080.819 C 604 1064.771, 605.025 1061.761, 611.457 1058.916 C 619.041 1055.561, 630.186 1055.015, 691.250 1055.008 L 750 1055 750 1041 L 750 1027 680.750 1027.150 C 642.663 1027.232, 610.150 1027.486, 608.500 1027.715 M 823.450 1028.433 C 807.348 1031.423, 795.111 1036.601, 786.787 1043.946 C 781.379 1048.718, 776.521 1057.765, 775.005 1065.886 C 773.667 1073.057, 773.667 1175.943, 775.005 1183.114 C 776.515 1191.203, 781.292 1200.064, 787.044 1205.445 C 793.159 1211.164, 805.061 1216.906, 817.500 1220.138 C 826.004 1222.347, 828.235 1222.477, 858 1222.488 C 875.325 1222.495, 895.869 1222.114, 903.652 1221.643 L 917.805 1220.785 934.369 1235.910 L 950.933 1251.035 975.646 1250.768 L 1000.359 1250.500 980.179 1232.187 C 969.081 1222.114, 960 1213.720, 960 1213.532 C 960 1213.344, 962.406 1211.833, 965.346 1210.174 C 972.161 1206.328, 978.304 1199.349, 981.217 1192.147 C 983.488 1186.529, 983.502 1186.209, 983.813 1129 C 984.142 1068.607, 983.889 1064.042, 979.704 1055.047 C 976.581 1048.334, 967.693 1039.910, 959.721 1036.105 C 955.992 1034.326, 948.567 1031.680, 943.221 1030.225 L 933.500 1027.579 882 1027.351 C 842.986 1027.178, 828.791 1027.441, 823.450 1028.433 M 1010.227 1106.250 L 1010.500 1185.500 1013.135 1191.120 C 1021.035 1207.969, 1039.254 1217.622, 1069.500 1220.983 C 1074.480 1221.537, 1104.974 1221.987, 1137.777 1221.992 L 1197.055 1222 1196.777 1207.750 L 1196.500 1193.500 1133 1192.976 C 1075.478 1192.501, 1069.068 1192.286, 1064.907 1190.685 C 1059.139 1188.467, 1054.504 1183.684, 1053.097 1178.500 C 1052.362 1175.794, 1052.009 1150.650, 1052.006 1100.750 L 1052 1027 1030.977 1027 L 1009.953 1027 1010.227 1106.250 M 1200.414 1033.861 C 1201.315 1035.318, 1213 1043.290, 1213 1042.448 C 1213 1041.437, 1208.614 1038.070, 1207.250 1038.033 C 1206.563 1038.015, 1206 1037.647, 1206 1037.216 C 1206 1036.784, 1204.583 1035.594, 1202.852 1034.572 C 1201.121 1033.549, 1200.024 1033.229, 1200.414 1033.861 M 1217.450 1046.486 C 1219.623 1048.382, 1221.620 1049.714, 1221.888 1049.446 C 1222.500 1048.833, 1215.854 1043.089, 1214.500 1043.060 C 1213.950 1043.048, 1215.278 1044.590, 1217.450 1046.486 M 1224.500 1051.572 C 1225.600 1052.402, 1227.513 1053.959, 1228.750 1055.034 C 1230.156 1056.254, 1230.995 1056.520, 1230.988 1055.743 C 1230.981 1055.060, 1229.412 1053.487, 1227.502 1052.250 C 1223.616 1049.733, 1221.398 1049.232, 1224.500 1051.572 M 44 1139 C 44 1184.833, 44.220 1222.113, 44.489 1221.845 C 45.150 1221.183, 45.184 1056.851, 44.523 1056.190 C 44.235 1055.902, 44 1093.167, 44 1139 M 250.857 1057.250 C 250.661 1057.938, 250.729 1095.400, 251.009 1140.500 L 251.518 1222.500 251.759 1139.250 C 251.891 1093.463, 251.823 1056, 251.607 1056 C 251.391 1056, 251.053 1056.563, 250.857 1057.250 M 838 1057.560 C 831.206 1059.387, 825.247 1063.419, 822.548 1068.014 C 820.569 1071.382, 820.490 1073.184, 820.214 1121.371 C 819.889 1178.190, 820.024 1179.478, 827.012 1186.126 C 833.736 1192.523, 837.440 1193.280, 864.349 1193.761 L 888.198 1194.187 871.176 1178.843 C 861.813 1170.405, 854.119 1163.162, 854.077 1162.750 C 854.034 1162.338, 864.978 1162, 878.396 1162 L 902.792 1162 918.116 1175.911 L 933.440 1189.823 936.150 1187.893 C 937.640 1186.832, 939.903 1184.285, 941.179 1182.232 L 943.500 1178.500 943.808 1127 C 944.020 1091.530, 943.773 1074.328, 943.013 1071.733 C 941.461 1066.436, 936.903 1061.654, 930.757 1058.876 C 925.525 1056.511, 925.306 1056.499, 884.500 1056.290 C 850.952 1056.118, 842.500 1056.349, 838 1057.560 M 1245.500 1067.427 C 1248.250 1069.919, 1250.950 1071.961, 1251.500 1071.965 C 1252.697 1071.971, 1245.351 1065.417, 1242.500 1063.935 C 1241.400 1063.363, 1242.750 1064.934, 1245.500 1067.427 M 486.241 1140.250 L 486.483 1195.500 486.750 1140.770 L 487.017 1086.040 508.259 1085.749 L 529.500 1085.458 507.750 1085.229 L 486 1085 486.241 1140.250 M 328.417 1165.500 C 328.418 1175.950, 328.566 1180.089, 328.746 1174.698 C 328.926 1169.307, 328.925 1160.757, 328.744 1155.698 C 328.563 1150.639, 328.416 1155.050, 328.417 1165.500 M 1239.734 1162.030 C 1230.757 1164.284, 1222.916 1170.377, 1218.828 1178.277 C 1217.239 1181.345, 1216.522 1184.856, 1216.205 1191.117 C 1215.810 1198.908, 1216.034 1200.326, 1218.547 1205.925 C 1227.491 1225.855, 1254.179 1230.210, 1269.673 1214.268 C 1284.295 1199.223, 1278.875 1172.468, 1259.466 1163.882 C 1254.329 1161.610, 1244.923 1160.727, 1239.734 1162.030 M 1236.227 1171.116 C 1230.606 1173.899, 1226.297 1179.250, 1224.367 1185.847 C 1218.405 1206.218, 1239.099 1223.642, 1257.877 1214.063 C 1265.773 1210.035, 1270 1202.595, 1270 1192.728 C 1270 1182.332, 1264.824 1174.182, 1255.703 1170.216 C 1251.138 1168.231, 1241.121 1168.694, 1236.227 1171.116 M 1234 1193 L 1234 1211 1237.500 1211 L 1241 1211 1241 1203 C 1241 1195.359, 1241.102 1195, 1243.261 1195 C 1245.020 1195, 1246.584 1196.773, 1250.315 1203 C 1254.825 1210.524, 1255.315 1211, 1258.555 1211 C 1260.450 1211, 1261.990 1210.662, 1261.979 1210.250 C 1261.967 1209.838, 1259.927 1206.365, 1257.445 1202.534 C 1252.977 1195.636, 1252.955 1195.561, 1255.196 1194.732 C 1260.452 1192.787, 1262.813 1187.980, 1261.484 1181.927 C 1260.329 1176.670, 1256.192 1175.008, 1244.250 1175.004 L 1234 1175 1234 1193 M 1241 1185 L 1241 1190 1246 1190 C 1249.716 1190, 1251.529 1189.471, 1253.061 1187.939 C 1257.102 1183.898, 1253.302 1180.043, 1245.250 1180.015 L 1241 1180 1241 1185 M 416.319 1220.749 C 429.419 1220.907, 450.569 1220.907, 463.319 1220.749 C 476.068 1220.591, 465.350 1220.461, 439.500 1220.462 C 413.650 1220.462, 403.218 1220.591, 416.319 1220.749 M 329.397 1266 C 329.397 1273.975, 329.553 1277.237, 329.743 1273.250 C 329.932 1269.263, 329.932 1262.737, 329.743 1258.750 C 329.553 1254.763, 329.397 1258.025, 329.397 1266" stroke="none" fill="#e48d06" fill-rule="evenodd"/><path d="M 231.814 22.239 C 230.018 23.203, 227.803 23.755, 226.892 23.466 C 225.970 23.173, 224.990 23.583, 224.680 24.393 C 224.335 25.291, 223.336 25.639, 222.061 25.306 C 220.582 24.919, 220 25.242, 220 26.451 C 220 27.680, 219.460 27.963, 218 27.500 C 216.651 27.072, 216 27.320, 216 28.264 C 216 29.033, 214.825 30.291, 213.390 31.059 C 208.041 33.922, 199.285 44.318, 195.752 52.002 C 191.607 61.016, 190 65.352, 190 67.524 C 190 68.821, 189.550 70.160, 189 70.500 C 188.437 70.848, 188 75.657, 188 81.500 C 188 87.343, 188.437 92.152, 189 92.500 C 189.550 92.840, 190 94.136, 190 95.381 C 190 102.139, 202.332 129.883, 208.250 136.439 C 209.213 137.505, 210 138.945, 210 139.639 C 210 140.333, 210.563 141.260, 211.250 141.700 C 211.938 142.140, 215.187 146.100, 218.470 150.500 C 221.754 154.900, 226.366 160.799, 228.720 163.608 C 231.074 166.417, 233 168.980, 233 169.302 C 233 169.625, 234.573 171.601, 236.495 173.694 C 238.418 175.787, 239.993 178.063, 239.995 178.750 C 239.998 179.438, 240.389 180, 240.864 180 C 241.339 180, 243.003 181.913, 244.561 184.250 C 246.120 186.588, 248.391 189.625, 249.608 191 C 254.445 196.464, 271.525 222.968, 275.063 230.500 C 279.852 240.696, 284.350 255.470, 283.589 258.503 C 283.267 259.785, 283.460 260.987, 284.017 261.172 C 284.906 261.469, 296.311 292.779, 297.710 298.765 C 298.001 300.010, 298.635 301.274, 299.119 301.574 C 299.604 301.873, 300 302.998, 300 304.073 C 300 305.148, 300.422 306.809, 300.938 307.764 C 301.454 308.719, 303.057 312.875, 304.500 317 C 305.943 321.125, 307.546 325.281, 308.062 326.236 C 308.578 327.191, 309 328.789, 309 329.786 C 309 330.784, 309.378 332.028, 309.840 332.550 C 310.302 333.073, 311.269 335.075, 311.990 337 C 313.935 342.196, 316.049 347.275, 317.084 349.236 C 317.588 350.191, 318 351.446, 318 352.024 C 318 353.346, 334.455 386.144, 338.298 392.482 C 346.749 406.420, 356.621 420.388, 360.574 424.003 C 371.504 433.993, 373.511 439.084, 369.581 446.840 C 366.607 452.709, 364.035 459.796, 364.015 462.179 C 364.007 463.102, 363.353 464.504, 362.562 465.295 C 361.771 466.086, 361.175 468.256, 361.239 470.117 C 361.401 474.896, 358.717 487.170, 357.398 487.677 C 356.792 487.910, 356.495 489.138, 356.737 490.407 C 357.210 492.881, 352.366 510.573, 350.577 512.904 C 349.985 513.676, 349.649 515.187, 349.831 516.262 C 350.262 518.804, 349.149 523.209, 348.221 522.641 C 347.824 522.398, 347.496 524.423, 347.492 527.141 C 347.487 529.860, 347.037 532.402, 346.492 532.792 C 345.946 533.181, 345.402 536.420, 345.283 539.989 C 345.163 543.558, 344.601 546.633, 344.033 546.822 C 343.440 547.020, 343 550.488, 343 554.958 C 343 563.360, 342.169 569.223, 341.075 568.546 C 340.700 568.315, 340.402 581.578, 340.413 598.022 C 340.423 614.465, 340.736 627.428, 341.106 626.828 C 342.022 625.347, 343.092 632.181, 343.176 640.047 C 343.214 643.596, 343.703 647.072, 344.263 647.771 C 344.822 648.470, 345.330 651.845, 345.390 655.271 C 345.456 659.018, 346.042 662.071, 346.861 662.932 C 347.800 663.921, 348.036 665.718, 347.623 668.734 C 347.255 671.417, 347.394 672.874, 347.983 672.511 C 348.510 672.185, 349.220 673.174, 349.560 674.709 C 349.901 676.244, 350.586 678.850, 351.082 680.500 C 351.579 682.150, 352.087 684.850, 352.211 686.500 C 352.336 688.150, 353.014 690.095, 353.719 690.821 C 354.423 691.548, 355.002 692.898, 355.005 693.821 C 355.008 694.745, 356.348 699.236, 357.983 703.802 C 369.099 734.846, 388.712 766.141, 404.857 778.598 C 407.639 780.744, 409.934 783.063, 409.957 783.750 C 409.981 784.438, 410.585 785, 411.301 785 C 413.694 785, 417.984 787.484, 417.992 788.875 C 417.998 789.869, 418.832 790.084, 421 789.650 C 423.090 789.232, 424 789.440, 424 790.337 C 424 791.318, 427.196 791.647, 437.429 791.719 C 448.554 791.798, 450.957 791.554, 451.438 790.301 C 451.841 789.250, 452.780 788.979, 454.509 789.413 C 456.345 789.874, 457 789.639, 457 788.519 C 457 787.684, 457.734 787, 458.631 787 C 460.718 787, 473.067 774.449, 474.867 770.500 C 475.618 768.850, 476.631 766.719, 477.117 765.764 C 477.603 764.809, 478 763.153, 478 762.085 C 478 761.017, 478.562 759.548, 479.250 758.821 C 479.938 758.095, 480.653 755.493, 480.841 753.039 C 481.029 750.585, 481.769 747.740, 482.486 746.716 C 483.282 745.580, 483.588 743.348, 483.272 740.988 C 482.684 736.608, 483.631 731.654, 484.906 732.442 C 485.372 732.730, 485.696 729.133, 485.626 724.449 C 485.552 719.416, 485.934 715.639, 486.561 715.216 C 487.145 714.822, 487.611 711.886, 487.597 708.691 C 487.583 705.497, 488.047 702.572, 488.629 702.191 C 489.211 701.811, 489.756 699.475, 489.840 697 C 489.932 694.334, 490.599 692.053, 491.479 691.403 C 492.529 690.627, 492.895 688.737, 492.732 684.940 C 492.262 674.052, 494.620 677.245, 509.957 708.262 C 524.474 737.621, 531.259 749.021, 542.133 762.325 C 545.359 766.271, 547.998 770.063, 547.999 770.750 C 547.999 771.438, 548.675 772, 549.500 772 C 550.325 772, 551 772.415, 551 772.922 C 551 773.920, 580.867 804.320, 590.250 812.872 C 593.413 815.755, 596 818.538, 596 819.057 C 596 819.575, 596.462 819.888, 597.027 819.750 C 598.418 819.411, 608.865 828.181, 608.940 829.750 C 608.973 830.438, 609.797 831, 610.772 831 C 611.746 831, 614.749 833.025, 617.445 835.500 C 620.141 837.975, 622.704 840, 623.141 840 C 623.578 840, 629.468 845.513, 636.231 852.250 C 654.338 870.291, 658.545 873.865, 666.261 877.762 C 667.779 878.529, 668.765 879.572, 668.451 880.078 C 668.138 880.585, 668.557 881, 669.382 881 C 672.937 881, 672.013 878.465, 666.655 873.518 C 663.555 870.656, 660.821 868.512, 660.579 868.755 C 660.112 869.221, 637 845.947, 637 845.011 C 637 844.710, 634.300 841.555, 631 838 C 627.700 834.445, 625 831.218, 625 830.830 C 625 830.441, 623.633 828.633, 621.961 826.812 C 616.073 820.395, 578.933 765.295, 572.545 753.500 C 571.949 752.400, 568.271 746.100, 564.370 739.500 C 560.470 732.900, 555.793 724.800, 553.975 721.500 C 552.158 718.200, 549.675 713.700, 548.456 711.500 C 541.754 699.398, 529.613 675.606, 525.494 666.500 C 524.499 664.300, 522.244 659.350, 520.484 655.500 C 516.003 645.699, 514.573 642.430, 511.517 635 C 508.746 628.261, 503.520 616.127, 501.745 612.310 C 501.184 611.105, 501.001 608.747, 501.336 607.069 C 501.742 605.042, 501.564 604.099, 500.808 604.259 C 500.181 604.392, 499.366 603.116, 498.996 601.424 C 498.055 597.116, 493.893 590, 492.316 590 C 490.974 590, 487 593.474, 487 594.647 C 487 595.239, 480.343 603.836, 478.984 605 C 478.662 605.275, 474.703 610.450, 470.184 616.500 C 462.267 627.101, 458.066 634.466, 454.498 644 C 453.572 646.475, 452.440 649.400, 451.982 650.500 C 451.525 651.600, 450.916 653.625, 450.629 655 C 449.089 662.376, 447.491 667.579, 446.574 668.201 C 446.006 668.586, 445.678 670.488, 445.845 672.428 C 446.193 676.459, 445.237 680.264, 444.060 679.537 C 443.622 679.267, 443.317 682.201, 443.382 686.058 C 443.450 690.122, 443.044 693.372, 442.416 693.786 C 441.787 694.200, 441.317 697.962, 441.298 702.738 C 441.279 707.270, 440.796 711.545, 440.224 712.238 C 439.653 712.932, 439.147 717.164, 439.102 721.643 C 439.013 730.355, 438.376 733.351, 436.817 732.387 C 436.195 732.002, 436.100 734.718, 436.553 739.919 C 437.167 746.956, 437.022 748.318, 435.476 750.026 C 433.365 752.360, 430.446 752.605, 429.645 750.517 C 429.332 749.701, 428.467 749.267, 427.722 749.553 C 424.211 750.900, 414.763 743.189, 408.080 733.522 C 405.286 729.480, 403 725.838, 403 725.428 C 403 725.018, 401.364 721.267, 399.364 717.091 C 397.364 712.916, 395.378 708.600, 394.950 707.500 C 394.523 706.400, 392.717 701.900, 390.938 697.500 C 387.912 690.019, 384.291 678.448, 381.705 668 C 381.093 665.525, 380.606 661.163, 380.624 658.307 C 380.644 655.125, 380.239 653.189, 379.578 653.307 C 378.923 653.424, 378.381 650.964, 378.197 647.038 C 378.030 643.484, 377.367 639.942, 376.724 639.167 C 375.986 638.279, 375.604 634.201, 375.689 628.133 C 375.778 621.769, 375.430 618.266, 374.662 617.791 C 373.037 616.786, 373.011 567.234, 374.635 566.213 C 375.356 565.760, 375.752 562.092, 375.721 556.161 C 375.693 550.876, 376.113 546.534, 376.688 546.161 C 377.247 545.797, 377.731 543.344, 377.763 540.708 C 377.794 538.073, 378.337 533.573, 378.968 530.708 C 379.598 527.844, 380.327 524.469, 380.587 523.209 C 380.868 521.844, 381.510 521.197, 382.175 521.608 C 382.950 522.087, 383.081 521.459, 382.602 519.552 C 381.981 517.078, 385.015 505.148, 387.955 498.500 C 388.442 497.400, 390.037 493.125, 391.500 489 C 392.963 484.875, 394.559 480.600, 395.046 479.500 C 395.533 478.400, 397.142 473.675, 398.622 469 C 400.102 464.325, 401.692 460.072, 402.156 459.550 C 402.620 459.027, 403 457.101, 403 455.269 C 403 453.436, 403.563 451.720, 404.250 451.453 C 405.067 451.137, 405.550 448.508, 405.644 443.859 C 405.740 439.095, 406.235 436.466, 407.144 435.890 C 408.142 435.257, 408.170 435.027, 407.250 435.015 C 406.563 435.007, 406 433.892, 406 432.537 C 406 429.367, 402.628 420.819, 399.649 416.434 C 398.372 414.555, 393.296 408.852, 388.368 403.759 C 380.162 395.279, 364 373, 364 370.167 C 364 369.525, 363.550 369, 363 369 C 362.450 369, 362 368.593, 362 368.096 C 362 367.599, 360.538 364.561, 358.750 361.346 C 355.958 356.324, 351.848 347.630, 348.896 340.500 C 348.440 339.400, 347.022 336.025, 345.744 333 C 344.467 329.975, 342.380 324.125, 341.108 320 C 339.836 315.875, 338.391 311.719, 337.897 310.764 C 337.404 309.809, 337 307.923, 337 306.573 C 337 305.223, 336.592 303.866, 336.092 303.557 C 335.593 303.249, 334.399 300.410, 333.439 297.248 C 332.479 294.087, 330.191 287, 328.354 281.500 C 326.518 276, 325.012 270.514, 325.007 269.309 C 325.003 268.104, 324.550 266.840, 324 266.500 C 323.450 266.160, 323 264.559, 323 262.941 C 323 261.323, 322.550 260, 322 260 C 321.450 260, 321 259.115, 321 258.034 C 321 256.953, 320.263 254.365, 319.361 252.284 C 317.514 248.017, 317.846 248.872, 311.467 232 C 308.867 225.125, 304.755 215.614, 302.328 210.865 C 294.778 196.087, 268.549 158.115, 254.340 141.392 C 251.953 138.583, 250 136.019, 250 135.694 C 250 135.369, 248.843 133.854, 247.429 132.328 C 243.758 128.368, 236.284 117.735, 234.800 114.363 C 234.108 112.788, 233.228 111.270, 232.847 110.988 C 231.577 110.051, 225.169 95.389, 223.459 89.505 C 222.502 86.216, 221.976 81.909, 222.241 79.550 C 222.793 74.656, 227.243 65.390, 228.869 65.750 C 229.491 65.888, 230 65.325, 230 64.500 C 230 63.077, 231.095 62.595, 233.636 62.899 C 234.261 62.974, 235.039 62.341, 235.364 61.493 C 235.781 60.407, 236.702 60.138, 238.478 60.584 C 240.038 60.975, 241 60.794, 241 60.108 C 241 59.479, 242.755 59, 245.059 59 C 247.828 59, 248.895 59.360, 248.418 60.133 C 247.910 60.954, 249.233 61.076, 253.231 60.577 C 257.340 60.064, 259.099 60.242, 260.134 61.277 C 260.899 62.041, 263.068 62.667, 264.956 62.667 C 266.844 62.667, 268.564 63.192, 268.778 63.833 C 268.992 64.475, 270.479 65, 272.083 65 C 274.026 65, 275 65.508, 275 66.519 C 275 67.639, 275.655 67.874, 277.491 67.413 C 279.264 66.968, 280.159 67.251, 280.598 68.394 C 280.967 69.357, 282.373 70, 284.107 70 C 285.698 70, 287 70.450, 287 71 C 287 71.550, 288.125 72, 289.500 72 C 290.875 72, 292 72.450, 292 73 C 292 73.550, 293.125 74, 294.500 74 C 296.136 74, 297 74.559, 297 75.617 C 297 76.815, 297.667 77.106, 299.579 76.740 C 301.217 76.427, 302.350 76.749, 302.686 77.624 C 302.976 78.381, 304.018 79, 305 79 C 305.982 79, 307.032 79.640, 307.332 80.422 C 307.666 81.293, 308.677 81.636, 309.939 81.306 C 311.354 80.936, 312 81.244, 312 82.290 C 312 83.317, 312.647 83.644, 313.988 83.293 C 315.226 82.969, 316.200 83.358, 316.571 84.323 C 316.898 85.176, 317.799 85.630, 318.574 85.333 C 319.349 85.036, 320.260 85.514, 320.599 86.396 C 320.937 87.278, 322.291 88, 323.607 88 C 324.997 88, 326 88.590, 326 89.406 C 326 90.320, 326.700 90.630, 328 90.290 C 329.391 89.926, 330 90.259, 330 91.383 C 330 92.417, 330.854 93, 332.365 93 C 333.666 93, 335.874 93.900, 337.273 95 C 338.671 96.100, 340.307 97, 340.908 97 C 341.508 97, 342 97.702, 342 98.559 C 342 99.416, 342.424 99.856, 342.943 99.535 C 343.824 98.991, 352.630 104.108, 357.239 107.843 C 360.164 110.212, 369.276 118.149, 370.723 119.588 C 371.396 120.257, 373.534 121.785, 375.473 122.984 C 377.413 124.182, 379 125.504, 379 125.921 C 379 126.339, 380.800 127.274, 383 128 C 385.282 128.753, 387 129.959, 387 130.807 C 387 132.072, 388.801 132.211, 399.022 131.740 C 407.762 131.338, 411.379 131.518, 412.272 132.402 C 413.108 133.230, 417.923 133.646, 427.347 133.706 C 435.993 133.761, 441.608 134.208, 442.297 134.897 C 442.969 135.569, 447.762 136, 454.578 136 C 463.534 136, 466.015 136.313, 467.063 137.576 C 468.004 138.710, 469.307 138.977, 471.699 138.529 C 474.184 138.063, 475.176 138.295, 475.617 139.445 C 476.010 140.468, 476.965 140.796, 478.461 140.421 C 479.803 140.084, 481.323 140.466, 482.225 141.368 C 483.058 142.200, 484.630 142.648, 485.720 142.363 C 486.815 142.077, 488.408 142.551, 489.279 143.422 C 490.147 144.290, 492.014 145, 493.429 145 C 495.105 145, 496 145.550, 496 146.579 C 496 147.814, 496.655 148.015, 499 147.500 C 500.887 147.085, 502 147.241, 502 147.921 C 502 148.514, 503.139 149, 504.531 149 C 505.924 149, 507.322 149.675, 507.638 150.500 C 507.955 151.325, 509.291 152, 510.607 152 C 511.923 152, 513 152.450, 513 153 C 513 153.550, 513.906 154, 515.014 154 C 516.121 154, 517.809 154.397, 518.764 154.883 C 519.719 155.369, 521.850 156.368, 523.500 157.103 C 525.150 157.837, 527.291 159.225, 528.257 160.185 C 529.224 161.146, 530.686 161.674, 531.507 161.359 C 532.473 160.988, 533 161.391, 533 162.501 C 533 163.832, 533.561 164.076, 535.500 163.589 C 537.345 163.126, 538 163.360, 538 164.481 C 538 165.366, 538.892 166, 540.139 166 C 541.316 166, 544.473 167.350, 547.154 169 C 549.836 170.650, 552.487 172, 553.046 172 C 553.605 172, 554.321 172.672, 554.636 173.494 C 554.952 174.316, 555.576 174.762, 556.024 174.485 C 556.472 174.208, 557.518 174.661, 558.348 175.491 C 559.178 176.321, 560.564 177, 561.429 177 C 562.293 177, 563 177.727, 563 178.617 C 563 179.731, 563.610 180.074, 564.965 179.719 C 566.163 179.406, 567.863 180.070, 569.321 181.422 C 570.637 182.641, 573.128 184.224, 574.856 184.941 C 576.585 185.657, 578 186.638, 578 187.121 C 578 187.605, 578.653 188, 579.450 188 C 580.248 188, 581.260 188.589, 581.700 189.309 C 582.140 190.029, 583.962 191.208, 585.750 191.930 C 587.538 192.652, 589 193.890, 589 194.680 C 589 195.471, 589.432 195.851, 589.959 195.525 C 591.232 194.739, 595 197.142, 595 198.741 C 595 199.433, 595.691 200, 596.535 200 C 598.587 200, 603.107 203.018, 602.508 203.988 C 602.246 204.411, 603.263 205.013, 604.766 205.327 C 606.270 205.640, 608.718 207.045, 610.206 208.449 C 611.695 209.852, 613.350 211, 613.884 211 C 614.418 211, 615.828 212.238, 617.018 213.750 C 618.208 215.262, 619.478 216.503, 619.841 216.506 C 621.164 216.518, 628 221.189, 628 222.082 C 628 222.587, 628.572 223, 629.272 223 C 629.971 223, 632.638 224.913, 635.198 227.250 C 637.758 229.588, 640.959 232.175, 642.312 233 C 645.982 235.239, 653 241.842, 653 243.056 C 653 243.640, 653.406 243.867, 653.901 243.561 C 654.938 242.920, 668.336 254.704, 668.823 256.685 C 669.001 257.408, 669.755 258, 670.500 258 C 672.949 258, 712.985 298.685, 724.622 313 C 726.187 314.925, 727.710 316.725, 728.006 317 C 729.569 318.452, 738 328.795, 738 329.261 C 738 329.562, 739.405 331.394, 741.121 333.333 C 742.838 335.272, 747.546 341.278, 751.584 346.679 C 755.622 352.081, 759.280 356.950, 759.713 357.501 C 763.599 362.442, 766 366.044, 766 366.933 C 766 367.520, 766.374 368, 766.831 368 C 767.288 368, 768.300 369.238, 769.079 370.750 C 769.859 372.262, 770.748 373.725, 771.055 374 C 771.363 374.275, 774.249 378.550, 777.470 383.500 C 780.690 388.450, 784.174 393.749, 785.211 395.275 C 787.300 398.349, 799.210 418.633, 800.316 421 C 800.702 421.825, 801.834 423.850, 802.832 425.500 C 803.831 427.150, 806.122 431.425, 807.924 435 C 809.726 438.575, 811.586 442.175, 812.057 443 C 816.254 450.352, 823 467.148, 823 470.246 C 823 471.211, 823.414 472, 823.921 472 C 824.427 472, 825.159 473.448, 825.548 475.217 C 826.215 478.257, 826.572 479.164, 829 483.986 C 829.550 485.079, 830 486.574, 830 487.309 C 830 488.044, 831.284 491.313, 832.853 494.573 C 834.422 497.833, 836.403 502.075, 837.255 504 C 842.444 515.722, 843.713 518.419, 861.247 555 C 864.806 562.425, 869.084 571.425, 870.755 575 C 881.285 597.539, 883 601.263, 883 601.584 C 883 601.780, 884.068 604.317, 885.373 607.220 C 886.678 610.124, 889.440 616.325, 891.510 621 C 897.289 634.051, 912.399 664.674, 916.921 672.500 C 919.145 676.350, 921.535 680.647, 922.232 682.050 C 924.383 686.376, 932.281 697.126, 936.750 701.809 C 939.087 704.259, 941 706.681, 941 707.191 C 941 707.701, 941.387 707.879, 941.860 707.587 C 943.133 706.800, 947.983 709.301, 947.992 710.750 C 947.997 711.470, 949.271 712, 951 712 C 952.650 712, 954 712.450, 954 713 C 954 713.550, 955.125 714, 956.500 714 C 957.875 714, 959 714.421, 959 714.937 C 959 715.452, 960.462 716.014, 962.250 716.187 C 964.228 716.377, 965.399 716.997, 965.243 717.771 C 965.068 718.638, 965.737 718.853, 967.349 718.448 C 968.833 718.076, 970.296 718.439, 971.282 719.425 C 972.159 720.302, 973.578 720.716, 974.498 720.362 C 975.446 719.999, 977.334 720.610, 978.949 721.804 C 980.657 723.067, 982.578 723.662, 983.864 723.325 C 985.274 722.957, 986.188 723.327, 986.615 724.438 C 987.093 725.686, 987.975 725.945, 990.128 725.472 C 992.275 725, 993.162 725.259, 993.636 726.495 C 994.075 727.637, 994.980 727.971, 996.563 727.573 C 997.944 727.227, 999.452 727.595, 1000.356 728.499 C 1001.182 729.325, 1002.988 730, 1004.370 730 C 1005.751 730, 1007.160 730.450, 1007.500 731 C 1007.840 731.550, 1009.216 732, 1010.559 732 C 1012.076 732, 1013 732.575, 1013 733.519 C 1013 734.639, 1013.655 734.874, 1015.491 734.413 C 1017.264 733.968, 1018.159 734.251, 1018.598 735.394 C 1018.958 736.334, 1020.363 737, 1021.985 737 C 1023.508 737, 1025.312 737.671, 1025.992 738.490 C 1026.775 739.433, 1028.105 739.761, 1029.614 739.382 C 1031.318 738.954, 1032 739.203, 1032 740.253 C 1032 741.279, 1032.750 741.579, 1034.488 741.247 C 1036.185 740.923, 1037.176 741.294, 1037.606 742.416 C 1038.028 743.515, 1038.889 743.853, 1040.206 743.435 C 1041.493 743.026, 1042.823 743.506, 1044.048 744.821 C 1045.226 746.086, 1046.680 746.635, 1047.961 746.300 C 1049.417 745.919, 1050 746.248, 1050 747.451 C 1050 748.681, 1050.540 748.963, 1052.005 748.498 C 1053.316 748.082, 1054.210 748.383, 1054.588 749.368 C 1054.905 750.196, 1055.799 750.630, 1056.574 750.333 C 1057.349 750.036, 1058.260 750.514, 1058.599 751.396 C 1058.937 752.278, 1059.953 753.014, 1060.857 753.032 C 1062.965 753.073, 1066 755.367, 1066 756.919 C 1066 757.579, 1066.432 757.851, 1066.959 757.525 C 1068.147 756.791, 1069.867 757.779, 1082.146 766.250 C 1087.527 769.963, 1092.396 773, 1092.965 773 C 1093.534 773, 1094 773.348, 1094 773.773 C 1094 774.198, 1095.575 775.393, 1097.500 776.430 C 1099.425 777.467, 1101 778.905, 1101 779.626 C 1101 780.347, 1101.621 780.699, 1102.380 780.408 C 1103.146 780.114, 1104.723 781.104, 1105.930 782.638 C 1107.124 784.156, 1108.708 785.487, 1109.451 785.596 C 1111.215 785.855, 1117 790.140, 1117 791.188 C 1117 791.635, 1117.337 791.905, 1117.750 791.788 C 1119.072 791.414, 1123 794.434, 1123 795.824 C 1123 796.562, 1123.563 796.962, 1124.250 796.711 C 1125.275 796.337, 1131.055 799.796, 1133 801.947 C 1133.583 802.592, 1137.332 804.778, 1141.250 806.757 C 1142.763 807.521, 1144 808.564, 1144 809.073 C 1144 809.583, 1144.609 810, 1145.354 810 C 1146.099 810, 1147.826 811.037, 1149.193 812.304 C 1150.561 813.570, 1152.123 814.459, 1152.666 814.278 C 1153.209 814.097, 1154.879 815.085, 1156.378 816.475 C 1157.877 817.864, 1159.464 819, 1159.905 819 C 1160.347 819, 1161.922 820.125, 1163.405 821.500 C 1164.889 822.875, 1166.513 824, 1167.015 824 C 1168.694 824, 1180.591 835.825, 1182.525 839.416 C 1184.027 842.205, 1184.175 843.225, 1183.218 844.182 C 1182.281 845.119, 1182 845.124, 1182 844.200 C 1182 842.434, 1142.339 842.484, 1141.749 844.250 C 1141.437 845.180, 1137.708 845.466, 1127.178 845.367 C 1119.395 845.293, 1113.243 845.584, 1113.507 846.012 C 1114.324 847.333, 1111.134 848, 1104.002 848 C 1099.874 848, 1097.020 848.441, 1096.796 849.112 C 1096.588 849.737, 1094.031 850.251, 1090.963 850.286 C 1087.958 850.319, 1085.179 850.831, 1084.786 851.423 C 1084.393 852.015, 1081.789 852.404, 1079 852.288 C 1076.211 852.171, 1074.176 852.476, 1074.479 852.966 C 1075.223 854.170, 1071.695 855.204, 1069.593 854.397 C 1068.557 854, 1067.418 854.414, 1066.647 855.468 C 1065.956 856.414, 1064.065 857.255, 1062.445 857.338 C 1060.825 857.421, 1058.873 858.086, 1058.106 858.816 C 1057.300 859.584, 1055.716 859.894, 1054.349 859.552 C 1052.737 859.147, 1052.068 859.362, 1052.243 860.229 C 1052.419 861.097, 1051.470 861.400, 1049.250 861.186 C 1046.835 860.953, 1046 861.274, 1046 862.436 C 1046 863.449, 1045.094 864, 1043.429 864 C 1042.014 864, 1040.182 864.675, 1039.356 865.501 C 1038.452 866.405, 1036.944 866.773, 1035.563 866.427 C 1033.992 866.032, 1033.075 866.361, 1032.649 867.473 C 1032.165 868.734, 1031.242 868.949, 1028.513 868.436 C 1025.632 867.896, 1025 868.079, 1025 869.452 C 1025 870.505, 1024.338 871.014, 1023.215 870.823 C 1020.722 870.401, 1013.247 877.597, 1012.461 881.176 C 1012.013 883.217, 1012.308 884.683, 1013.412 885.903 C 1014.293 886.876, 1016.811 891.878, 1019.008 897.019 C 1021.205 902.159, 1025.252 909.619, 1028.001 913.596 C 1030.751 917.573, 1033 921.278, 1033 921.830 C 1033 922.382, 1033.382 922.983, 1033.849 923.167 C 1034.316 923.350, 1038.071 927.550, 1042.193 932.500 C 1049.602 941.398, 1062.395 954, 1064.019 954 C 1064.480 954, 1066.424 955.477, 1068.338 957.282 C 1070.252 959.088, 1072.916 961.152, 1074.257 961.870 C 1075.599 962.588, 1077.860 964.149, 1079.283 965.338 C 1080.705 966.527, 1084.448 969.300, 1087.600 971.500 C 1090.751 973.700, 1094.088 976.220, 1095.015 977.100 C 1095.941 977.979, 1098.117 979.327, 1099.850 980.094 C 1101.582 980.861, 1103 982.039, 1103 982.713 C 1103 983.386, 1103.563 983.722, 1104.250 983.458 C 1104.938 983.195, 1106.718 984.109, 1108.206 985.490 C 1109.695 986.870, 1111.607 988, 1112.456 988 C 1113.305 988, 1114 988.647, 1114 989.438 C 1114 990.229, 1114.787 990.823, 1115.750 990.759 C 1116.713 990.695, 1120.803 992.523, 1124.840 994.821 C 1128.876 997.120, 1132.714 999, 1133.367 999 C 1134.021 999, 1135.318 999.891, 1136.250 1000.979 C 1137.182 1002.068, 1138.574 1002.717, 1139.343 1002.422 C 1140.113 1002.127, 1140.997 1002.551, 1141.310 1003.365 C 1141.664 1004.289, 1142.652 1004.642, 1143.939 1004.306 C 1145.388 1003.927, 1146 1004.243, 1146 1005.372 C 1146 1006.440, 1146.752 1006.897, 1148.250 1006.738 C 1149.717 1006.583, 1150.398 1006.979, 1150.207 1007.878 C 1150.005 1008.829, 1150.565 1009.085, 1152.019 1008.705 C 1153.323 1008.364, 1154.330 1008.695, 1154.668 1009.578 C 1154.968 1010.360, 1156.264 1011, 1157.548 1011 C 1158.832 1011, 1160.160 1011.450, 1160.500 1012 C 1160.840 1012.550, 1161.991 1013, 1163.059 1013 C 1164.127 1013, 1165 1013.450, 1165 1014 C 1165 1014.550, 1165.601 1015, 1166.335 1015 C 1168.147 1015, 1187.415 1024.934, 1187.833 1026.084 C 1188.017 1026.588, 1188.818 1027, 1189.615 1027 C 1190.411 1027, 1191.311 1027.647, 1191.614 1028.437 C 1191.917 1029.227, 1192.720 1029.661, 1193.398 1029.401 C 1194.076 1029.141, 1195.838 1030.048, 1197.315 1031.416 C 1198.792 1032.785, 1200 1033.676, 1200 1033.396 C 1200 1033.116, 1201.350 1033.684, 1203 1034.659 C 1204.650 1035.634, 1206 1036.784, 1206 1037.216 C 1206 1037.647, 1206.563 1038.015, 1207.250 1038.033 C 1208.900 1038.077, 1213 1041.532, 1213 1042.879 C 1213 1043.461, 1213.563 1043.726, 1214.250 1043.467 C 1214.938 1043.208, 1217.213 1044.573, 1219.306 1046.498 C 1221.399 1048.424, 1223.318 1050, 1223.570 1050 C 1224.931 1050, 1230.977 1054.686, 1230.988 1055.750 C 1230.994 1056.437, 1231.338 1056.903, 1231.750 1056.784 C 1233.072 1056.402, 1239.975 1061.452, 1239.988 1062.809 C 1239.994 1063.529, 1240.404 1063.869, 1240.897 1063.564 C 1241.936 1062.922, 1251.500 1070.545, 1251.500 1072.015 C 1251.500 1072.557, 1251.900 1072.962, 1252.388 1072.915 C 1252.877 1072.868, 1253.552 1073.224, 1253.888 1073.707 C 1255.306 1075.743, 1266.299 1084, 1267.592 1084 C 1269.491 1084, 1269.390 1083.345, 1266.601 1077.514 C 1265.281 1074.756, 1263.025 1069.887, 1261.587 1066.694 C 1259.619 1062.323, 1256.194 1058.083, 1247.736 1049.547 C 1241.556 1043.309, 1233.350 1034.242, 1229.500 1029.397 C 1218.670 1015.769, 1194.294 991.564, 1179.753 980 C 1176.641 977.525, 1174.073 974.952, 1174.047 974.281 C 1174.021 973.611, 1173.437 973.262, 1172.750 973.506 C 1171.361 973.999, 1165 968.635, 1165 966.970 C 1165 966.388, 1164.392 966.045, 1163.648 966.206 C 1161.824 966.603, 1152.004 959.838, 1152.002 958.183 C 1152.001 957.360, 1151.311 957.084, 1150.163 957.448 C 1148.993 957.819, 1147.339 957.117, 1145.611 955.516 C 1144.118 954.132, 1142.245 953, 1141.448 953 C 1140.652 953, 1140 952.305, 1140 951.456 C 1140 950.607, 1139.438 949.981, 1138.750 950.065 C 1136.356 950.356, 1133 948.757, 1133 947.324 C 1133 946.531, 1132.586 946.138, 1132.081 946.450 C 1131.575 946.763, 1130.377 946.234, 1129.418 945.275 C 1128.459 944.316, 1127.186 943.499, 1126.587 943.459 C 1124.323 943.306, 1122 941.732, 1122 940.349 C 1122 939.559, 1121.346 939.045, 1120.546 939.206 C 1118.959 939.527, 1101 928.143, 1101 926.817 C 1101 926.367, 1100.356 926, 1099.570 926 C 1097.957 926, 1079 907.542, 1079 905.973 C 1079 905.416, 1077.869 903.169, 1076.487 900.980 C 1075.106 898.791, 1074.318 896.954, 1074.737 896.899 C 1075.157 896.843, 1077.024 896.883, 1078.886 896.987 C 1080.820 897.095, 1082.628 896.602, 1083.100 895.838 C 1083.620 894.998, 1085.696 894.538, 1088.684 894.601 C 1091.615 894.663, 1093.995 894.148, 1094.884 893.259 C 1095.792 892.351, 1097.367 892.023, 1099.132 892.376 C 1101.078 892.766, 1102.204 892.457, 1102.814 891.369 C 1103.372 890.370, 1105.082 889.800, 1107.517 889.800 C 1109.621 889.800, 1112.014 889.128, 1112.835 888.308 C 1113.777 887.366, 1115.341 887.018, 1117.073 887.365 C 1118.997 887.749, 1119.997 887.451, 1120.412 886.369 C 1120.869 885.177, 1121.884 884.974, 1124.870 885.478 C 1127.859 885.983, 1128.870 885.780, 1129.330 884.583 C 1129.766 883.446, 1131.261 883.064, 1134.952 883.148 C 1137.718 883.210, 1140.651 882.705, 1141.469 882.025 C 1142.399 881.254, 1146.053 880.810, 1151.201 880.844 C 1156.547 880.879, 1159.703 880.480, 1160.180 879.709 C 1160.672 878.912, 1163.780 878.581, 1169.582 878.706 C 1176.194 878.849, 1178.610 878.533, 1179.770 877.373 C 1180.914 876.229, 1182.458 876.013, 1186.009 876.501 C 1189.789 877.021, 1190.849 876.837, 1191.333 875.575 C 1191.747 874.496, 1193.229 874, 1196.040 874 C 1198.459 874, 1200.796 873.347, 1201.735 872.408 C 1202.769 871.373, 1204.290 871.008, 1206.073 871.365 C 1208.009 871.752, 1208.996 871.452, 1209.420 870.348 C 1209.874 869.164, 1210.845 868.936, 1213.395 869.414 C 1215.913 869.887, 1216.916 869.661, 1217.353 868.524 C 1217.720 867.566, 1219.219 867, 1221.385 867 C 1223.282 867, 1225.007 866.479, 1225.219 865.842 C 1225.432 865.205, 1227.029 864.725, 1228.770 864.774 C 1231.622 864.855, 1232 864.517, 1232.594 861.352 C 1233.401 857.051, 1232.271 854.785, 1225.859 847.848 C 1223.187 844.956, 1221 842.257, 1221 841.851 C 1221 841.444, 1219.427 839.399, 1217.505 837.306 C 1215.582 835.213, 1214.007 832.975, 1214.005 832.333 C 1214.002 831.692, 1213.662 831.017, 1213.248 830.833 C 1212.834 830.650, 1210.247 827.800, 1207.498 824.500 C 1202.187 818.124, 1199.582 815.589, 1191.336 808.770 C 1188.497 806.422, 1185.939 803.667, 1185.654 802.649 C 1185.368 801.632, 1184.722 801.054, 1184.218 801.365 C 1183.274 801.949, 1173.135 793.850, 1171.689 791.356 C 1171.242 790.587, 1170.527 790.174, 1170.100 790.438 C 1169.672 790.703, 1167.029 788.800, 1164.227 786.209 C 1161.424 783.619, 1158.879 781.500, 1158.571 781.500 C 1157.281 781.500, 1149.073 774.397, 1149.038 773.250 C 1149.017 772.563, 1148.213 771.992, 1147.250 771.983 C 1146.287 771.974, 1143.362 769.961, 1140.750 767.510 C 1138.138 765.060, 1136 763.290, 1136 763.578 C 1136 764.062, 1129.131 759.225, 1128 757.945 C 1127.725 757.634, 1124.350 755.193, 1120.500 752.522 C 1116.650 749.850, 1113.050 747.177, 1112.500 746.582 C 1111.950 745.987, 1110.263 744.861, 1108.750 744.081 C 1107.237 743.301, 1106 742.119, 1106 741.456 C 1106 740.793, 1104.763 739.992, 1103.250 739.676 C 1101.737 739.361, 1099.282 737.955, 1097.794 736.551 C 1096.305 735.148, 1094.836 734, 1094.528 734 C 1093.648 734, 1082.538 726.585, 1082.167 725.750 C 1081.983 725.337, 1081.196 725, 1080.417 725 C 1079.638 725, 1079 724.325, 1079 723.500 C 1079 722.675, 1078.346 722, 1077.547 722 C 1075.068 722, 1071 719.745, 1071 718.371 C 1071 717.622, 1070.362 717.308, 1069.508 717.635 C 1068.653 717.963, 1067.751 717.516, 1067.395 716.586 C 1067.052 715.694, 1066.261 715.062, 1065.636 715.180 C 1063.917 715.506, 1054 710.125, 1054 708.867 C 1054 708.248, 1053.098 708.003, 1051.939 708.306 C 1050.677 708.636, 1049.666 708.293, 1049.332 707.422 C 1049.032 706.640, 1047.709 706, 1046.393 706 C 1045.077 706, 1044 705.550, 1044 705 C 1044 704.450, 1042.875 704, 1041.500 704 C 1040.125 704, 1039 703.550, 1039 703 C 1039 702.450, 1038.127 702, 1037.059 702 C 1035.991 702, 1034.840 701.550, 1034.500 701 C 1034.160 700.450, 1032.994 700, 1031.910 700 C 1030.825 700, 1029.678 699.325, 1029.362 698.500 C 1029.045 697.675, 1027.695 697, 1026.362 697 C 1025.028 697, 1023.679 696.328, 1023.364 695.506 C 1023.048 694.684, 1022.345 694.287, 1021.800 694.624 C 1021.255 694.960, 1019.840 694.780, 1018.655 694.223 C 1017.470 693.666, 1013.800 691.961, 1010.500 690.435 C 1007.200 688.908, 1004.176 687.174, 1003.781 686.580 C 1003.386 685.986, 1002.036 685.500, 1000.781 685.500 C 999.415 685.500, 998.610 684.968, 998.775 684.175 C 998.958 683.295, 998.421 683.049, 997.177 683.444 C 996.146 683.771, 993.997 683.358, 992.402 682.525 C 990.806 681.693, 988.938 681.010, 988.250 681.006 C 987.563 681.003, 987 680.550, 987 680 C 987 679.450, 985.650 679, 984 679 C 981.967 679, 981 678.504, 981 677.462 C 981 676.381, 980.183 676.010, 978.250 676.212 C 976.469 676.399, 975.588 676.059, 975.750 675.250 C 975.888 674.563, 975.114 674, 974.032 674 C 970.939 674, 962.191 661.264, 954.800 646 C 952.802 641.875, 945.447 626.800, 938.454 612.500 C 927.037 589.152, 917.240 568.929, 905.998 545.500 C 903.887 541.100, 901.168 535.250, 899.957 532.500 C 898.746 529.750, 896.010 523.743, 893.877 519.151 C 891.745 514.559, 890 510.633, 890 510.428 C 890 510.017, 886.609 502.443, 881.389 491.197 C 879.525 487.180, 878 483.333, 878 482.647 C 878 481.961, 877.627 480.972, 877.171 480.450 C 876.715 479.927, 874.724 475.450, 872.747 470.500 C 858.334 434.411, 853.918 424.039, 848.364 413.222 C 844.896 406.469, 840.921 399.451, 839.529 397.627 C 838.138 395.804, 837 393.966, 837 393.543 C 837 393.121, 830.099 382.363, 821.665 369.638 C 807.333 348.015, 791.157 325.729, 778.089 309.602 C 775.015 305.809, 771.403 301.309, 770.063 299.602 C 768.723 297.896, 765.573 294.225, 763.063 291.445 C 760.553 288.665, 755.365 282.815, 751.534 278.445 C 744.890 270.867, 702.181 228, 701.275 228 C 700.323 228, 685.464 214.575, 684.961 213.261 C 684.664 212.486, 683.989 211.906, 683.461 211.971 C 681.993 212.153, 674.081 205.670, 674.038 204.250 C 674.017 203.563, 673.390 203, 672.644 203 C 670.616 203, 661.868 196.022, 662.538 194.938 C 662.857 194.422, 662.410 194, 661.545 194 C 659.329 194, 653.027 189.753, 653.012 188.250 C 653.006 187.563, 652.465 187, 651.812 187 C 649.962 187, 644.014 182.642, 644.007 181.281 C 644.003 180.611, 643.420 180.285, 642.711 180.558 C 642.001 180.830, 639.567 179.466, 637.302 177.526 C 635.036 175.587, 632.724 174, 632.164 174 C 631.603 174, 630.260 172.875, 629.179 171.500 C 628.097 170.125, 626.602 168.982, 625.856 168.959 C 625.110 168.937, 622.942 167.587, 621.038 165.959 C 619.134 164.332, 616.996 163, 616.288 163 C 615.579 163, 615 162.325, 615 161.500 C 615 160.675, 614.212 159.986, 613.250 159.968 C 611.025 159.928, 608 157.660, 608 156.033 C 608 155.347, 607.361 155.031, 606.579 155.331 C 605.798 155.631, 603.885 154.683, 602.329 153.224 C 600.773 151.765, 599.050 150.555, 598.500 150.536 C 596.474 150.464, 583.017 141.456, 583.009 140.167 C 583.004 139.433, 582.438 139.034, 581.750 139.279 C 580.191 139.836, 575 137.294, 575 135.974 C 575 135.438, 574.311 135, 573.469 135 C 572.626 135, 571.668 134.299, 571.340 133.443 C 571.011 132.586, 570.161 132.108, 569.450 132.381 C 568.740 132.653, 567.070 131.868, 565.740 130.635 C 564.409 129.402, 562.829 128.557, 562.228 128.757 C 561.627 128.958, 560.632 128.182, 560.018 127.033 C 559.403 125.884, 558.469 125.210, 557.943 125.535 C 557.417 125.860, 555.752 125.278, 554.243 124.241 C 552.734 123.204, 549.700 121.535, 547.500 120.533 C 545.300 119.531, 543.139 118.099, 542.697 117.350 C 542.186 116.483, 541.005 116.212, 539.447 116.603 C 537.580 117.071, 537 116.820, 537 115.541 C 537 114.319, 536.457 114.038, 534.995 114.502 C 533.663 114.924, 532.788 114.612, 532.388 113.569 C 532.005 112.570, 530.553 112, 528.393 112 C 526.527 112, 525 111.550, 525 111 C 525 110.450, 523.425 110, 521.500 110 C 519.010 110, 518 109.554, 518 108.455 C 518 107.231, 517.274 107.046, 514.511 107.564 C 511.844 108.064, 510.879 107.849, 510.420 106.652 C 509.996 105.548, 509.009 105.248, 507.073 105.635 C 505.338 105.982, 503.776 105.633, 502.829 104.687 C 501.982 103.839, 499.709 103.235, 497.598 103.294 C 495.451 103.355, 493.513 102.830, 493.035 102.057 C 492.566 101.298, 490.313 100.668, 487.853 100.607 C 485.297 100.544, 483.582 100.048, 483.698 99.405 C 483.820 98.735, 482.160 98.347, 479.412 98.405 C 476.808 98.460, 474.604 97.976, 474.155 97.250 C 473.701 96.516, 471.614 96.069, 469.103 96.167 C 466.681 96.262, 464.503 95.814, 464.083 95.134 C 463.557 94.284, 458.859 93.935, 447.985 93.939 C 431.843 93.946, 427.596 93.463, 428.658 91.745 C 429.097 91.034, 425.741 90.871, 418.101 91.233 C 406.777 91.770, 402.024 90.889, 402.008 88.250 C 402.004 87.563, 401.212 86.986, 400.250 86.968 C 398.172 86.931, 393.656 83.152, 392.694 80.646 C 392.320 79.671, 391.620 79.117, 391.138 79.415 C 390.656 79.713, 387.787 77.829, 384.762 75.228 C 376.294 67.948, 375.053 67, 373.989 67 C 373.445 67, 373 66.381, 373 65.625 C 373 64.869, 371.704 63.991, 370.121 63.674 C 368.537 63.357, 366.624 62.488, 365.871 61.743 C 365.117 60.998, 363.712 60.090, 362.750 59.725 C 361.788 59.361, 361 58.599, 361 58.031 C 361 57.464, 360.161 57, 359.135 57 C 358.109 57, 356.126 56.100, 354.727 55 C 353.329 53.900, 351.468 53, 350.592 53 C 349.717 53, 349 52.339, 349 51.531 C 349 50.640, 348.413 50.288, 347.508 50.635 C 346.657 50.962, 345.753 50.519, 345.401 49.604 C 345.063 48.722, 343.934 48, 342.893 48 C 341.852 48, 341 47.550, 341 47 C 341 46.450, 339.875 46, 338.500 46 C 336.897 46, 336 45.438, 336 44.433 C 336 43.319, 335.420 43.049, 333.995 43.502 C 332.653 43.928, 331.787 43.609, 331.377 42.539 C 330.982 41.510, 330.091 41.154, 328.877 41.539 C 327.673 41.921, 326.773 41.572, 326.390 40.575 C 326.060 39.715, 325.454 39.219, 325.043 39.474 C 324.631 39.728, 323.441 39.290, 322.397 38.500 C 321.354 37.710, 319.698 37.049, 318.719 37.032 C 317.739 37.014, 316.664 36.289, 316.331 35.419 C 315.958 34.448, 314.982 34.033, 313.801 34.342 C 312.668 34.638, 311.649 34.248, 311.320 33.393 C 310.991 32.534, 310.037 32.171, 308.987 32.504 C 308.010 32.814, 306.520 32.378, 305.677 31.534 C 304.833 30.690, 302.972 30, 301.540 30 C 300.108 30, 298.669 29.302, 298.342 28.448 C 297.908 27.319, 296.965 27.068, 294.872 27.528 C 292.911 27.959, 291.834 27.730, 291.479 26.807 C 291.162 25.980, 289.395 25.455, 286.930 25.455 C 284.713 25.455, 282.584 24.990, 282.199 24.422 C 281.815 23.854, 279.548 23.324, 277.162 23.244 C 274.776 23.164, 272.182 22.566, 271.396 21.914 C 270.430 21.112, 264.336 20.690, 252.525 20.608 C 237.660 20.505, 234.598 20.747, 231.814 22.239 M 410 204.192 C 410 204.664, 408.875 205.477, 407.500 206 C 405.054 206.930, 404.019 209, 406 209 C 406.550 209, 407 209.480, 407 210.067 C 407 211.364, 411.209 217.084, 416.148 222.500 C 425.461 232.712, 429.488 238.842, 436.524 253.517 C 440.636 262.094, 444 269.520, 444 270.020 C 444 270.520, 444.866 271.393, 445.925 271.960 C 447.565 272.837, 448.583 272.166, 452.810 267.424 C 456.073 263.763, 458.356 259.999, 459.479 256.428 C 460.418 253.441, 461.482 251.179, 461.843 251.400 C 462.205 251.621, 462.500 248.134, 462.500 243.651 C 462.500 236.181, 462.175 234.848, 458.608 227.704 C 456.467 223.416, 453.527 218.691, 452.074 217.204 C 448.733 213.784, 441.966 208, 441.308 208 C 441.033 208, 439.389 206.988, 437.654 205.750 C 434.815 203.725, 433.278 203.492, 422.250 203.417 C 415.512 203.372, 410 203.720, 410 204.192 M 35.367 1024.026 C 26.760 1025.575, 15.134 1029.661, 11.550 1032.394 C 9.683 1033.818, 6.883 1037.575, 5.328 1040.742 L 2.500 1046.500 2.500 1134 L 2.500 1221.500 23.250 1221.770 L 44 1222.041 44 1138.820 C 44 1093.049, 44.374 1056.027, 44.832 1056.550 C 45.289 1057.072, 59.530 1088.550, 76.478 1126.500 C 113.959 1210.426, 113.480 1209.448, 119.965 1215.279 C 127.436 1221.995, 132.707 1223.508, 148.500 1223.465 C 159.601 1223.435, 162.329 1223.100, 167.174 1221.171 C 173.598 1218.615, 179.631 1213.248, 183.279 1206.847 C 184.641 1204.456, 200.548 1169.429, 218.628 1129.008 L 251.500 1055.516 251.756 1138.778 L 252.011 1222.041 272.756 1221.770 L 293.500 1221.500 293.500 1134 L 293.500 1046.500 290.871 1040.893 C 289.339 1037.626, 286.742 1034.143, 284.649 1032.546 C 280.107 1029.082, 267.954 1025.184, 257.179 1023.736 C 237.855 1021.138, 221.455 1028.491, 213.098 1043.500 C 211.567 1046.250, 196.181 1080.332, 178.907 1119.238 C 161.633 1158.144, 147.275 1189.969, 147 1189.960 C 146.725 1189.951, 132.550 1157.461, 115.500 1117.760 C 98.450 1078.060, 82.811 1043.026, 80.747 1039.909 C 76.655 1033.727, 69.264 1028.032, 62 1025.464 C 56.527 1023.529, 42.371 1022.764, 35.367 1024.026 M 329 1136.304 L 329 1186.607 331.532 1191.689 C 337.003 1202.666, 350.640 1211.829, 368.930 1216.816 L 378.500 1219.425 432.250 1219.768 L 486 1220.111 485.996 1229.806 C 485.992 1242.032, 484.497 1244.940, 476.224 1248.817 L 470.500 1251.500 400.250 1251.776 L 330 1252.052 330 1266.062 L 330 1280.072 404.750 1279.764 C 478.962 1279.457, 479.558 1279.439, 487.500 1277.187 C 507.502 1271.517, 521.169 1261.708, 526.087 1249.493 L 528.500 1243.500 528.785 1164.750 L 529.069 1086 508.035 1086 L 487 1086 487 1140.551 L 487 1195.102 436.250 1194.801 C 387.152 1194.510, 385.352 1194.432, 380.967 1192.402 C 378.474 1191.248, 375.211 1188.851, 373.717 1187.075 L 371 1183.847 371 1134.923 L 371 1086 350 1086 L 329 1086 329 1136.304" stroke="none" fill="#07658d" fill-rule="evenodd"/></svg>