<svg xmlns="http://www.w3.org/2000/svg" width="1200" height="648" viewBox="0 0 1200 648" version="1.1"><path d="M 465.585 205.107 C 442.009 208.545, 417.485 221.909, 402.923 239.253 C 382.312 263.802, 373.164 291.859, 374.313 327 C 376.037 379.680, 396.643 416.404, 434.381 434.049 C 464.300 448.037, 509.604 446.888, 537.611 431.431 C 558.399 419.957, 572.986 401.880, 579.446 379.589 C 580.851 374.742, 582 370.592, 582 370.366 C 582 370.140, 573.644 370.078, 563.430 370.228 L 544.860 370.500 543.164 375.513 C 537.367 392.645, 521.346 405.607, 501.027 409.605 C 491.061 411.565, 471.959 411.050, 463 408.580 C 440.499 402.375, 423.821 385.999, 417.089 363.500 C 415.056 356.704, 412.767 336.770, 413.732 334.257 C 414.107 333.279, 432.616 332.956, 499.855 332.756 L 585.500 332.500 585.222 321.500 C 584.303 285.145, 571.732 252.424, 550.617 231.430 C 535.724 216.623, 519.763 208.423, 500.045 205.451 C 489.675 203.887, 474.952 203.740, 465.585 205.107 M 602.287 205.306 C 602.563 206.024, 621.061 231.466, 643.394 261.844 C 665.727 292.221, 684 317.426, 684 317.853 C 684 318.281, 663.972 346.727, 639.493 381.066 L 594.985 443.500 618.117 443.769 C 631.495 443.924, 641.724 443.642, 642.375 443.099 C 642.994 442.583, 658.125 420.318, 676 393.622 C 693.875 366.925, 708.725 345.081, 709 345.079 C 709.275 345.077, 724.318 367.153, 742.429 394.138 C 760.540 421.122, 775.849 443.388, 776.448 443.618 C 777.047 443.848, 788.420 443.916, 801.720 443.768 L 825.901 443.500 780.345 380 C 755.290 345.075, 734.584 315.991, 734.334 315.369 C 734.083 314.747, 751.943 290.048, 774.023 260.482 C 796.103 230.916, 814.403 206.113, 814.691 205.363 C 815.123 204.237, 811.219 204, 792.206 204 L 769.197 204 739.349 245.953 C 722.932 269.026, 709.275 287.907, 709 287.909 C 708.725 287.911, 696.852 270.816, 682.615 249.920 C 668.378 229.024, 655.438 210.143, 653.859 207.963 L 650.987 204 626.387 204 C 606.556 204, 601.883 204.253, 602.287 205.306 M 467.927 237.997 C 443.016 241.963, 422.694 261.327, 416.008 287.468 C 414.904 291.787, 414 296.823, 414 298.660 L 414 302 479.937 302 L 545.874 302 545.347 298.250 C 543.658 286.243, 539.409 274.468, 533.616 265.740 C 525.750 253.891, 510.810 243.166, 497 239.457 C 490.038 237.586, 475.187 236.841, 467.927 237.997" stroke="none" fill="#fafafa" fill-rule="evenodd"/><path d="M 564.522 16.606 C 520.049 21.710, 482.149 34.065, 446.329 55.136 C 399.524 82.670, 358.670 123.524, 331.136 170.329 C 304.197 216.124, 291.019 266.604, 291.019 324 C 291.019 381.396, 304.197 431.876, 331.136 477.671 C 359.790 526.380, 405.095 570.784, 452.500 596.620 C 497.930 621.380, 545.042 633, 600 633 C 685.621 633, 757.781 603.206, 817.993 542.993 C 878.878 482.109, 908.981 409.656, 908.981 324 C 908.981 266.604, 895.803 216.124, 868.864 170.329 C 833.982 111.032, 778.614 62.322, 717.662 37.308 C 690.152 26.019, 666.336 20.100, 634 16.516 C 617.253 14.659, 581.074 14.706, 564.522 16.606 M 465.585 205.107 C 442.009 208.545, 417.485 221.909, 402.923 239.253 C 382.312 263.802, 373.164 291.859, 374.313 327 C 376.037 379.680, 396.643 416.404, 434.381 434.049 C 464.300 448.037, 509.604 446.888, 537.611 431.431 C 558.399 419.957, 572.986 401.880, 579.446 379.589 C 580.851 374.742, 582 370.592, 582 370.366 C 582 370.140, 573.644 370.078, 563.430 370.228 L 544.860 370.500 543.164 375.513 C 537.367 392.645, 521.346 405.607, 501.027 409.605 C 491.061 411.565, 471.959 411.050, 463 408.580 C 440.499 402.375, 423.821 385.999, 417.089 363.500 C 415.056 356.704, 412.767 336.770, 413.732 334.257 C 414.107 333.279, 432.616 332.956, 499.855 332.756 L 585.500 332.500 585.222 321.500 C 584.303 285.145, 571.732 252.424, 550.617 231.430 C 535.724 216.623, 519.763 208.423, 500.045 205.451 C 489.675 203.887, 474.952 203.740, 465.585 205.107 M 602.287 205.306 C 602.563 206.024, 621.061 231.466, 643.394 261.844 C 665.727 292.221, 684 317.426, 684 317.853 C 684 318.281, 663.972 346.727, 639.493 381.066 L 594.985 443.500 618.117 443.769 C 631.495 443.924, 641.724 443.642, 642.375 443.099 C 642.994 442.583, 658.125 420.318, 676 393.622 C 693.875 366.925, 708.725 345.081, 709 345.079 C 709.275 345.077, 724.318 367.153, 742.429 394.138 C 760.540 421.122, 775.849 443.388, 776.448 443.618 C 777.047 443.848, 788.420 443.916, 801.720 443.768 L 825.901 443.500 780.345 380 C 755.290 345.075, 734.584 315.991, 734.334 315.369 C 734.083 314.747, 751.943 290.048, 774.023 260.482 C 796.103 230.916, 814.403 206.113, 814.691 205.363 C 815.123 204.237, 811.219 204, 792.206 204 L 769.197 204 739.349 245.953 C 722.932 269.026, 709.275 287.907, 709 287.909 C 708.725 287.911, 696.852 270.816, 682.615 249.920 C 668.378 229.024, 655.438 210.143, 653.859 207.963 L 650.987 204 626.387 204 C 606.556 204, 601.883 204.253, 602.287 205.306 M 467.927 237.997 C 443.016 241.963, 422.694 261.327, 416.008 287.468 C 414.904 291.787, 414 296.823, 414 298.660 L 414 302 479.937 302 L 545.874 302 545.347 298.250 C 543.658 286.243, 539.409 274.468, 533.616 265.740 C 525.750 253.891, 510.810 243.166, 497 239.457 C 490.038 237.586, 475.187 236.841, 467.927 237.997" stroke="none" fill="#3c3c3c" fill-rule="evenodd"/></svg>