<svg xmlns="http://www.w3.org/2000/svg" width="1600" height="1816" viewBox="0 0 1600 1816" version="1.1"><path d="M 298.002 333.250 C 298.072 343.314, 306.947 446.377, 326.465 663.787 C 339.959 814.095, 351 937.733, 351 938.537 C 351 939.818, 394.209 940, 698.500 940 C 1028.774 940, 1046.001 940.087, 1046.030 941.750 C 1046.061 943.551, 1021.831 1198.355, 1021.597 1198.683 C 1021.526 1198.784, 971.212 1212.430, 909.790 1229.007 L 798.113 1259.147 686.976 1229.160 C 625.850 1212.666, 575.561 1198.895, 575.222 1198.556 C 574.883 1198.217, 571.432 1162.291, 567.553 1118.720 L 560.500 1039.500 461.250 1039.245 C 367.179 1039.004, 362.002 1039.082, 362.037 1040.745 C 362.184 1047.669, 386.781 1354.115, 387.226 1354.559 C 388.065 1355.399, 797.247 1468.266, 799 1468.142 C 800.756 1468.018, 1209.019 1355.314, 1209.517 1354.817 C 1210.257 1354.076, 1216.002 1290.342, 1237.576 1043.500 C 1252.221 875.945, 1261.261 777.174, 1263.364 761.750 L 1266.602 738 901.320 738 L 536.038 738 535.576 735.750 C 535.321 734.513, 531.463 690.525, 527.001 638 C 522.539 585.475, 518.627 540.138, 518.307 537.250 L 517.725 532 900.843 532 L 1283.962 532 1284.428 529.750 C 1284.684 528.513, 1285.402 520.750, 1286.023 512.500 C 1286.643 504.250, 1289.614 473.650, 1292.624 444.500 C 1297.002 402.106, 1301.862 345.090, 1301.980 334.750 C 1301.999 333.086, 1277.436 333, 800 333 C 523.900 333, 298.001 333.113, 298.002 333.250" stroke="none" fill="#f3f3f3" fill-rule="evenodd"/><path d="M 0 2.276 C 0 5.861, 144.999 1631.332, 145.350 1631.683 C 145.523 1631.856, 292.327 1673.443, 471.582 1724.098 C 784.283 1812.464, 797.682 1816.157, 802 1815.164 C 808.223 1813.734, 1454.158 1632.175, 1454.602 1631.732 C 1454.799 1631.535, 1487.402 1266.902, 1527.053 821.437 C 1566.704 375.972, 1599.564 10.719, 1600.073 9.764 C 1600.583 8.809, 1601 6.221, 1601 4.014 L 1601 0 800.500 0 L 0 0 0 2.276 M 298.002 333.250 C 298.072 343.314, 306.947 446.377, 326.465 663.787 C 339.959 814.095, 351 937.733, 351 938.537 C 351 939.818, 394.209 940, 698.500 940 C 1028.774 940, 1046.001 940.087, 1046.030 941.750 C 1046.061 943.551, 1021.831 1198.355, 1021.597 1198.683 C 1021.526 1198.784, 971.212 1212.430, 909.790 1229.007 L 798.113 1259.147 686.976 1229.160 C 625.850 1212.666, 575.561 1198.895, 575.222 1198.556 C 574.883 1198.217, 571.432 1162.291, 567.553 1118.720 L 560.500 1039.500 461.250 1039.245 C 367.179 1039.004, 362.002 1039.082, 362.037 1040.745 C 362.184 1047.669, 386.781 1354.115, 387.226 1354.559 C 388.065 1355.399, 797.247 1468.266, 799 1468.142 C 800.756 1468.018, 1209.019 1355.314, 1209.517 1354.817 C 1210.257 1354.076, 1216.002 1290.342, 1237.576 1043.500 C 1252.221 875.945, 1261.261 777.174, 1263.364 761.750 L 1266.602 738 901.320 738 L 536.038 738 535.576 735.750 C 535.321 734.513, 531.463 690.525, 527.001 638 C 522.539 585.475, 518.627 540.138, 518.307 537.250 L 517.725 532 900.843 532 L 1283.962 532 1284.428 529.750 C 1284.684 528.513, 1285.402 520.750, 1286.023 512.500 C 1286.643 504.250, 1289.614 473.650, 1292.624 444.500 C 1297.002 402.106, 1301.862 345.090, 1301.980 334.750 C 1301.999 333.086, 1277.436 333, 800 333 C 523.900 333, 298.001 333.113, 298.002 333.250" stroke="none" fill="#e65326" fill-rule="evenodd"/></svg>