<svg xmlns="http://www.w3.org/2000/svg" width="3000" height="3000" viewBox="0 0 3000 3000" version="1.1"><path d="M 1201.472 2461.032 C 1177.731 2463.481, 1150.361 2477.058, 1118.602 2502.139 L 1110.705 2508.376 1111.331 2501.438 C 1113.086 2481.987, 1113.230 2474.797, 1111.981 2468.910 C 1111.270 2465.559, 1110.136 2462.606, 1109.460 2462.346 C 1108.785 2462.087, 1101.543 2463.958, 1093.366 2466.504 C 1071.931 2473.178, 1051.215 2478.387, 1029.500 2482.566 C 1010.040 2486.310, 1004.313 2488.287, 1001.566 2492.209 C 999.481 2495.185, 999.577 2501.262, 1001.750 2503.913 C 1002.724 2505.101, 1012.735 2510, 1024.319 2514.959 C 1035.770 2519.860, 1045.856 2524.462, 1046.732 2525.185 C 1047.608 2525.908, 1049.155 2528.373, 1050.170 2530.662 C 1051.943 2534.661, 1051.977 2538.206, 1051.024 2620.905 C 1049.969 2712.489, 1050.065 2710.910, 1045.212 2716.343 C 1042.575 2719.295, 1036.268 2721.618, 1024.370 2724.022 C 1007.439 2727.442, 1007.038 2727.825, 1007.014 2740.601 C 1006.998 2748.517, 1008.341 2753.533, 1010.719 2754.446 C 1013.609 2755.555, 1147.221 2755.054, 1151.332 2753.919 C 1156.282 2752.552, 1158.005 2748.634, 1157.986 2738.782 C 1157.964 2726.810, 1158.820 2727.604, 1143.195 2725.059 C 1121.024 2721.448, 1117.154 2719.448, 1114.878 2710.423 C 1113.744 2705.929, 1111.734 2596.257, 1112.193 2564 C 1112.496 2542.766, 1112.535 2542.429, 1115.300 2536.799 C 1118.254 2530.783, 1122.451 2527.078, 1133 2521.174 C 1146.486 2513.625, 1161.131 2509.923, 1177.502 2509.923 C 1196.607 2509.923, 1210.556 2515.464, 1221.851 2527.540 C 1228.862 2535.036, 1232.473 2541.621, 1235.007 2551.527 C 1237.747 2562.240, 1239.228 2606.527, 1238.819 2665.500 C 1238.501 2711.313, 1238.491 2711.515, 1236.231 2715.149 C 1233.070 2720.232, 1226.299 2722.588, 1203.762 2726.446 C 1198.199 2727.398, 1196.400 2732.683, 1197.611 2744.508 C 1198.806 2756.171, 1191.328 2755.073, 1269.185 2755.021 C 1306.411 2754.996, 1338.279 2754.694, 1340.003 2754.349 C 1344.914 2753.367, 1346.386 2750.075, 1346.827 2739.088 C 1347.303 2727.233, 1346.951 2726.818, 1334.500 2724.546 C 1323.254 2722.494, 1310.499 2718.658, 1306.301 2716.066 C 1304.137 2714.730, 1302.773 2712.863, 1302.085 2710.296 C 1301.475 2708.020, 1300.831 2680.067, 1300.476 2640.500 C 1300.151 2604.200, 1299.439 2568.650, 1298.895 2561.500 C 1295.358 2515.029, 1278.762 2485.324, 1247.500 2469.514 C 1233.152 2462.258, 1217.514 2459.376, 1201.472 2461.032 M 805.668 2463.018 C 759.708 2467.326, 710.511 2494.288, 688.718 2527.111 C 663.264 2565.448, 657.975 2618.385, 674.586 2668.553 C 682.132 2691.342, 691.014 2706.266, 705.875 2721.122 C 731.430 2746.669, 763.192 2759.309, 801.500 2759.176 C 847.330 2759.017, 889.600 2741.773, 917.333 2711.921 C 939.572 2687.982, 952.376 2657.852, 956.121 2620.647 C 958.145 2600.539, 955.132 2574.708, 948.290 2553.500 C 936.751 2517.736, 915.672 2492.589, 884.552 2477.463 C 861.090 2466.059, 831.340 2460.611, 805.668 2463.018 M 189.500 2467.047 C 183.450 2469.142, 161.625 2474.731, 141 2479.467 C 118.382 2484.660, 102.508 2488.792, 101 2489.878 C 97.106 2492.684, 95.575 2496.559, 97 2500.001 C 97.900 2502.173, 99.767 2503.513, 104.841 2505.627 C 140.613 2520.535, 144.019 2522.408, 146.603 2528.593 C 147.757 2531.353, 147.992 2544.527, 147.954 2604.218 C 147.929 2643.973, 147.541 2683.557, 147.093 2692.183 C 145.793 2717.172, 143.248 2720.148, 118.500 2725.603 C 100.247 2729.626, 101.883 2728.113, 102.216 2740.668 L 102.500 2751.360 105.449 2752.147 C 107.071 2752.579, 139.299 2752.651, 177.066 2752.305 L 245.734 2751.676 246.367 2744.187 C 247.484 2730.978, 247.290 2729.105, 244.750 2728.522 C 243.512 2728.238, 236.806 2726.913, 229.847 2725.578 C 222.887 2724.244, 215.853 2722.458, 214.216 2721.612 C 210.107 2719.487, 206.232 2714.624, 205.125 2710.205 C 203.755 2704.734, 202.840 2543.162, 204.153 2538.409 C 205.714 2532.755, 207.730 2530.495, 216 2525.130 C 235.643 2512.387, 254.260 2506.038, 272 2506.032 C 295.314 2506.025, 312.442 2516.577, 322.309 2537.026 C 330.863 2554.754, 331.915 2562.810, 332.623 2616 C 333.193 2658.898, 331.336 2708.556, 328.991 2713.103 C 325.238 2720.383, 321.563 2722.162, 302.343 2726.005 C 296.379 2727.197, 290.555 2728.775, 289.400 2729.511 C 286.951 2731.072, 285.678 2739.489, 286.651 2747.698 L 287.241 2752.682 358.086 2752.542 C 397.051 2752.465, 429.284 2752.050, 429.715 2751.619 C 430.917 2750.419, 431.291 2733.836, 430.181 2730.947 C 429.291 2728.632, 428.008 2728.134, 416.350 2725.581 C 400.433 2722.095, 393.900 2719.185, 390.802 2714.202 L 388.500 2710.500 387.863 2636 C 387.512 2595.025, 386.886 2555.410, 386.472 2547.968 L 385.719 2534.435 388.717 2531.468 C 393.054 2527.176, 406.117 2519.592, 416.381 2515.407 C 459.672 2497.759, 498.871 2513.411, 509.444 2552.567 C 512.107 2562.429, 513.112 2592.357, 512.798 2652.500 C 512.509 2707.731, 512.436 2709.621, 510.449 2713.409 C 507.742 2718.568, 501.231 2722.145, 488.500 2725.465 C 474.002 2729.246, 473.564 2729.684, 473.214 2740.747 C 472.991 2747.801, 473.263 2750.120, 474.455 2751.312 C 475.805 2752.663, 483.977 2752.775, 545.241 2752.286 C 583.333 2751.981, 614.638 2751.617, 614.807 2751.476 C 615.421 2750.963, 617.968 2730.758, 617.512 2730.019 C 617.253 2729.601, 615.570 2728.971, 613.771 2728.620 C 606.036 2727.109, 583.208 2720.581, 580 2718.961 C 575.130 2716.503, 572.368 2713.212, 571.071 2708.324 C 570.296 2705.406, 570.044 2682.366, 570.231 2631.824 C 570.519 2554.371, 570.431 2552.574, 565.378 2533.126 C 555.694 2495.854, 531.735 2471.040, 499.066 2464.447 C 488.105 2462.234, 469.878 2462.898, 458.782 2465.913 C 440.832 2470.791, 421.034 2480.827, 396.194 2497.640 C 387.775 2503.338, 380.324 2508, 379.635 2508 C 377.639 2508, 375.681 2506.010, 369.604 2497.804 C 345.992 2465.922, 315.188 2456.080, 277 2468.218 C 259.077 2473.914, 239.585 2484.258, 219.704 2498.622 C 214.092 2502.677, 208.690 2505.996, 207.699 2505.997 C 204.352 2506.002, 203.229 2500.605, 204.161 2489 C 205.301 2474.802, 204.379 2462.958, 202.146 2463.118 C 201.241 2463.183, 195.550 2464.951, 189.500 2467.047 M 1495.825 2464.526 C 1484.455 2466.077, 1469.713 2469.944, 1459.082 2474.164 C 1418.356 2490.330, 1394.246 2515.335, 1386.976 2548.943 C 1381.415 2574.655, 1384.552 2602.801, 1395.278 2623.417 C 1405.430 2642.932, 1418.721 2654.577, 1443.250 2665.451 C 1447.875 2667.501, 1451 2669.483, 1451 2670.365 C 1451 2672.843, 1444.120 2677.924, 1422.777 2691.208 C 1402.209 2704.010, 1400 2705.967, 1400 2711.391 C 1400 2715.035, 1403.730 2724.904, 1407.081 2730.126 C 1411.097 2736.384, 1421.143 2745.627, 1428.580 2749.906 C 1431.836 2751.779, 1436.232 2754.403, 1438.349 2755.736 L 1442.199 2758.160 1439.849 2760.699 C 1438.557 2762.095, 1427.731 2771.058, 1415.790 2780.616 C 1386.554 2804.018, 1381.820 2808.559, 1377.475 2817.368 C 1371.510 2829.463, 1370.902 2839.089, 1375.106 2854.895 C 1383.365 2885.944, 1405.989 2908.077, 1440 2918.380 C 1484.949 2931.997, 1529.580 2928.810, 1571.731 2908.972 C 1601.534 2894.946, 1627.873 2873.596, 1642.435 2851.661 C 1656.404 2830.619, 1663.841 2802.751, 1661.009 2782.064 C 1658.011 2760.167, 1646.380 2741.899, 1628.586 2731.135 C 1614.844 2722.822, 1601.500 2720.282, 1538.500 2713.987 C 1481.243 2708.265, 1475.393 2706.939, 1470.486 2698.566 C 1465.898 2690.737, 1467.838 2681.303, 1475.121 2676.027 C 1479.726 2672.691, 1484.332 2671.489, 1498 2670.057 C 1519.965 2667.755, 1535.838 2663.234, 1553.286 2654.309 C 1585.573 2637.794, 1605.436 2613.036, 1612.591 2580.389 C 1615.156 2568.681, 1614.939 2543.844, 1612.150 2530.065 C 1610.988 2524.325, 1610.147 2519.519, 1610.282 2519.385 C 1610.416 2519.251, 1615.020 2519.821, 1620.513 2520.653 C 1637.290 2523.193, 1647.243 2520.897, 1655.541 2512.574 C 1664.591 2503.495, 1667.663 2492.908, 1665.877 2476.946 C 1665.364 2472.362, 1664.757 2468.424, 1664.528 2468.195 C 1664.300 2467.966, 1661.500 2469.807, 1658.306 2472.285 C 1646.618 2481.356, 1637.946 2483.963, 1619.381 2483.985 C 1603.836 2484.004, 1592.363 2481.967, 1579.105 2476.832 C 1547.327 2464.527, 1522.603 2460.873, 1495.825 2464.526 M 1833.500 2463.619 C 1812.930 2466.582, 1786.399 2475.479, 1769 2485.249 C 1730.497 2506.870, 1708.660 2537.387, 1700.296 2581.264 C 1698.942 2588.365, 1698.541 2595.585, 1698.558 2612.500 C 1698.578 2631.537, 1698.885 2635.898, 1700.836 2644.880 C 1714.320 2706.953, 1746.914 2742.599, 1802.253 2755.792 C 1812.732 2758.291, 1815.037 2758.473, 1836 2758.464 C 1855.513 2758.455, 1859.796 2758.162, 1868.259 2756.258 C 1920.826 2744.433, 1960.020 2713.258, 1977.336 2669.500 C 1992.921 2630.115, 1992.808 2577.421, 1977.061 2540.896 C 1962.604 2507.362, 1934.329 2481.361, 1900 2470.032 C 1885.069 2465.104, 1876.377 2463.812, 1856 2463.493 C 1845.275 2463.325, 1835.150 2463.382, 1833.500 2463.619 M 1487 2491.123 C 1454.728 2494.542, 1435.945 2526.640, 1441.427 2569 C 1446.719 2609.893, 1463.022 2632.461, 1492.766 2640.068 C 1517.212 2646.320, 1539.476 2636.726, 1549.965 2615.419 C 1551.692 2611.912, 1554.295 2604.645, 1555.750 2599.271 C 1558.162 2590.359, 1558.395 2587.875, 1558.395 2571 C 1558.395 2554.082, 1558.166 2551.656, 1555.724 2542.628 C 1554.255 2537.199, 1551.176 2528.874, 1548.882 2524.128 C 1537.870 2501.353, 1513.440 2488.323, 1487 2491.123 M 788 2493.952 C 766.284 2497.041, 749.260 2509.383, 739.653 2529 C 725.811 2557.268, 723.042 2600.498, 732.609 2639 C 736.140 2653.211, 743.873 2672.728, 750.248 2683.517 C 756.311 2693.777, 770.137 2708.454, 779.429 2714.492 C 792.915 2723.255, 809.212 2728.129, 825 2728.119 C 843.723 2728.109, 855.739 2723.252, 868.565 2710.511 C 878.264 2700.877, 883.916 2690.728, 887.541 2676.438 C 890.270 2665.679, 895.368 2630.775, 894.587 2628.194 C 894.305 2627.262, 893.581 2619.750, 892.978 2611.500 C 891.048 2585.093, 886.682 2567.366, 877.462 2548.500 C 867.055 2527.208, 851.966 2511.044, 834.500 2502.478 C 820.378 2495.552, 801.316 2492.057, 788 2493.952 M 1821 2493.968 C 1806.923 2495.929, 1794.534 2501.900, 1785.133 2511.255 C 1773.928 2522.405, 1768.272 2534.443, 1763.276 2557.779 C 1760.740 2569.626, 1760.553 2572.150, 1760.556 2594.500 C 1760.559 2621.343, 1761.703 2629.232, 1768.601 2650 C 1781.932 2690.135, 1802.872 2714.255, 1833 2724.176 C 1845.183 2728.188, 1863.509 2729.243, 1873.913 2726.532 C 1884.621 2723.741, 1893.723 2718.504, 1901.582 2710.612 C 1912.371 2699.777, 1918.064 2688.316, 1922.004 2669.500 C 1924.868 2655.827, 1928.265 2628.786, 1927.205 2628.097 C 1926.700 2627.769, 1926.022 2620.975, 1925.699 2613 C 1923.586 2560.787, 1901.221 2518.740, 1866.674 2502.030 C 1853.310 2495.566, 1833.996 2492.157, 1821 2493.968 M 1483 2765.952 C 1466.655 2768.052, 1458.988 2772.042, 1445.441 2785.500 C 1434.614 2796.256, 1430.256 2803.079, 1427.531 2813.542 C 1421.103 2838.220, 1436.412 2864.591, 1465.544 2879.022 C 1488.106 2890.199, 1527.738 2893.274, 1554.816 2885.949 C 1575.527 2880.346, 1591.460 2869.640, 1600.961 2854.939 C 1612.632 2836.882, 1613.657 2813.742, 1603.552 2796.498 C 1592.342 2777.370, 1559.899 2766.981, 1507 2765.581 C 1497.375 2765.326, 1486.575 2765.493, 1483 2765.952" stroke="none" fill="#4e392c" fill-rule="evenodd"/><path d="M 1490.083 77.174 C 1489.441 79.003, 1488.503 84.820, 1487.996 90.100 C 1486.401 106.733, 1483.430 117.078, 1475.961 132 C 1466.194 151.513, 1453.017 166.972, 1421.559 195.825 C 1412.177 204.431, 1385.917 229.909, 1363.205 252.444 L 1321.910 293.418 1268.258 363.959 L 1214.606 434.500 1170.493 515.554 L 1126.380 596.608 1097.554 674.554 C 1081.700 717.424, 1067.953 754.075, 1067.004 756 C 1064.847 760.379, 1056.672 789.193, 1050.122 815.500 C 1032.109 887.851, 1020.166 963.375, 1011.933 1057 C 1008.075 1100.873, 1008.206 1131.451, 1012.553 1202 C 1017.067 1275.255, 1027.810 1335.456, 1049.404 1408.500 C 1096.086 1566.410, 1178.173 1709.200, 1297.406 1839.897 C 1339.472 1886.008, 1373.769 1918.510, 1432.500 1967.920 C 1445.150 1978.563, 1456.290 1988.012, 1457.255 1988.918 C 1458.258 1989.860, 1461.780 1999.968, 1465.483 2012.532 C 1470.931 2031.023, 1472.979 2040.356, 1478.420 2071.500 C 1484.310 2105.215, 1485.165 2111.963, 1488.043 2147.500 C 1490.420 2176.842, 1491.039 2189.187, 1490.541 2197.351 C 1490.177 2203.319, 1490.196 2212.924, 1490.583 2218.695 C 1491.258 2228.779, 1491.426 2229.365, 1494.896 2233.746 C 1498.330 2238.082, 1499.284 2238.582, 1514.503 2244.042 C 1523.301 2247.199, 1535.112 2251.597, 1540.750 2253.815 L 1551 2257.849 1550.995 2253.675 C 1550.992 2251.379, 1550.098 2236.900, 1549.009 2221.500 C 1547.602 2201.615, 1547.024 2183.170, 1547.014 2157.858 C 1547 2123.449, 1547.154 2120.561, 1551.452 2074.358 C 1556.902 2015.774, 1557.187 2014.570, 1571.773 1988.721 L 1581.241 1971.942 1600.371 1957.124 C 1631.113 1933.311, 1641.213 1924.735, 1659.264 1907.116 C 1680.748 1886.146, 1721.779 1843.622, 1737.551 1825.980 C 1793.794 1763.065, 1837.129 1699.668, 1873.332 1627.334 C 1891.343 1591.349, 1908.407 1553.660, 1920.973 1522.110 C 1935.958 1484.485, 1939.802 1472.421, 1956.063 1412 C 1962.205 1389.175, 1967.864 1368.250, 1968.638 1365.500 C 1970.614 1358.475, 1976.491 1326.611, 1979.427 1307 C 1988.202 1248.394, 1991.640 1193.499, 1990.668 1127.500 C 1988.822 1002.107, 1974.511 918.774, 1933.308 793.500 C 1907.163 714.008, 1885.363 660.588, 1852.507 595.500 C 1826.616 544.211, 1807.689 511.565, 1777.427 466 C 1730.609 395.505, 1685.036 339.871, 1618.510 272 C 1583.009 235.781, 1568.664 219.177, 1555.339 198.883 C 1545.173 183.400, 1502.766 101.277, 1496.015 84 C 1494.188 79.325, 1492.368 75.128, 1491.971 74.674 C 1491.574 74.220, 1490.724 75.345, 1490.083 77.174 M 2058.814 2322.104 C 2056.289 2324.399, 2044.339 2346.672, 2045.181 2347.515 C 2045.405 2347.739, 2052.094 2349.079, 2060.044 2350.493 C 2067.995 2351.908, 2079.208 2353.974, 2084.962 2355.086 C 2101.459 2358.272, 2108.676 2363.300, 2112.574 2374.322 C 2114.289 2379.174, 2114.425 2385.425, 2114.729 2473.500 C 2114.908 2525.200, 2114.666 2596.750, 2114.191 2632.500 C 2113.360 2695.180, 2113.252 2697.736, 2111.167 2704.112 C 2109.978 2707.749, 2108.016 2711.981, 2106.808 2713.517 C 2103.727 2717.434, 2091.363 2722.865, 2080.597 2725.031 C 2075.590 2726.038, 2070.258 2727.332, 2068.747 2727.906 C 2065.329 2729.206, 2062.551 2733.626, 2059.983 2741.855 C 2057.481 2749.873, 2057.402 2754.538, 2059.750 2755.511 C 2063.021 2756.866, 2257.187 2757.388, 2271.945 2756.081 C 2364.492 2747.889, 2438.741 2702.395, 2472.004 2633.500 C 2480.828 2615.222, 2487.867 2591.695, 2491.660 2567.797 C 2493.875 2553.842, 2494.210 2510.640, 2492.212 2496.500 C 2488.626 2471.114, 2482.849 2450.948, 2473.592 2431.500 C 2445.658 2372.815, 2394.403 2335.551, 2325.833 2324.075 C 2303.965 2320.415, 2285.017 2319.826, 2230 2321.098 C 2182.528 2322.195, 2111.926 2321.849, 2076.475 2320.346 C 2061.605 2319.715, 2061.423 2319.734, 2058.814 2322.104 M 2550.413 2320.933 C 2545.568 2322.107, 2544.982 2322.762, 2540.799 2331.688 C 2536.252 2341.392, 2535.181 2346.087, 2537.152 2347.687 C 2537.893 2348.289, 2547.950 2350.212, 2559.500 2351.961 C 2571.050 2353.710, 2582.300 2355.943, 2584.500 2356.924 C 2589.684 2359.234, 2593.772 2363.384, 2596.397 2369 L 2598.500 2373.500 2598.325 2527.215 C 2598.148 2682.987, 2597.829 2697.721, 2594.406 2708.203 C 2592.685 2713.474, 2587.994 2718.201, 2582.836 2719.863 C 2581.001 2720.454, 2571.850 2722.348, 2562.500 2724.072 C 2553.150 2725.797, 2544.996 2727.617, 2544.380 2728.118 C 2541.540 2730.427, 2536.730 2742.489, 2536.247 2748.514 L 2535.744 2754.773 2554.622 2755.636 C 2565.005 2756.110, 2611.750 2756.494, 2658.500 2756.488 C 2734.059 2756.479, 2744.860 2756.284, 2755.745 2754.729 C 2788.429 2750.062, 2818.445 2738.759, 2845.188 2721.050 C 2882.043 2696.644, 2900.059 2666.656, 2903.510 2623.967 C 2905.822 2595.385, 2894.152 2564.747, 2873.472 2545.104 C 2859.827 2532.142, 2846.957 2524.833, 2820.500 2515.019 C 2812.800 2512.163, 2806.362 2509.689, 2806.193 2509.522 C 2806.024 2509.356, 2812.494 2505.232, 2820.570 2500.360 C 2842.934 2486.867, 2854.052 2475.516, 2862.548 2457.500 C 2867.629 2446.726, 2869.949 2437.806, 2870.701 2426.152 C 2872.319 2401.064, 2863.389 2374.437, 2847.534 2357.084 C 2834.551 2342.873, 2808.798 2329.926, 2783 2324.639 C 2766.849 2321.330, 2755.007 2321.012, 2657 2321.257 C 2603.375 2321.391, 2558.150 2321.204, 2556.500 2320.843 C 2554.850 2320.481, 2552.111 2320.522, 2550.413 2320.933 M 2203.279 2354.068 C 2193.918 2354.974, 2190.561 2356.310, 2187.601 2360.309 C 2185.719 2362.851, 2185.458 2365.031, 2184.852 2383.309 C 2183.868 2412.970, 2183.955 2643.306, 2184.958 2665.500 C 2185.900 2686.321, 2187.209 2692.083, 2192.870 2700.310 C 2198.296 2708.198, 2206.214 2712.788, 2222.488 2717.481 C 2236.507 2721.524, 2248.604 2723.086, 2265.849 2723.081 C 2295.262 2723.072, 2315.955 2718.627, 2337.375 2707.716 C 2350.512 2701.024, 2360.484 2693.438, 2372.095 2681.301 C 2403.581 2648.390, 2420.295 2601.609, 2420.434 2546 C 2420.584 2486.136, 2405.116 2440.243, 2373.705 2407.360 C 2358.451 2391.391, 2345.068 2381.559, 2325.500 2371.945 C 2306.092 2362.409, 2284.531 2356.504, 2260.144 2354.044 C 2248.401 2352.860, 2215.622 2352.874, 2203.279 2354.068 M 2678.644 2355.010 C 2674.286 2355.567, 2672.115 2356.430, 2670.161 2358.384 C 2667.546 2360.999, 2667.532 2361.102, 2666.847 2381.755 C 2666.468 2393.165, 2665.959 2424.463, 2665.715 2451.307 C 2665.316 2495.164, 2665.435 2500.314, 2666.886 2502.094 C 2670.723 2506.801, 2738.038 2506.722, 2756.548 2501.988 C 2778.726 2496.316, 2793.807 2479.854, 2798.553 2456.140 C 2800.870 2444.561, 2800.137 2417.294, 2797.271 2408.500 C 2789.701 2385.264, 2772.656 2368.861, 2748 2361.084 C 2729.648 2355.296, 2698.063 2352.530, 2678.644 2355.010 M 2669.389 2538.991 C 2668.228 2539.454, 2666.988 2540.588, 2666.634 2541.511 C 2665.720 2543.893, 2665.985 2640.428, 2666.973 2665 C 2667.648 2681.793, 2668.198 2686.766, 2670.010 2692.500 C 2675.790 2710.783, 2683.829 2717.068, 2706.554 2721.071 C 2715.012 2722.561, 2722.879 2723.188, 2733.500 2723.221 C 2773.637 2723.342, 2800.568 2711.114, 2816.516 2685.527 C 2828.184 2666.805, 2832.491 2641.901, 2828.539 2616 C 2824.046 2586.554, 2809.397 2566.729, 2782 2553.014 C 2760.399 2542.202, 2750.039 2540.236, 2710.751 2539.494 C 2694.663 2539.190, 2679.250 2538.763, 2676.500 2538.545 C 2673.750 2538.328, 2670.550 2538.528, 2669.389 2538.991" stroke="none" fill="#509e3e" fill-rule="evenodd"/></svg>